<svg width="128" height="128" viewBox="0 0 128 128" fill="none" xmlns="http://www.w3.org/2000/svg" xmlns:xlink="http://www.w3.org/1999/xlink">
<g clip-path="url(#clip0_161_51)">
<rect width="128" height="128" rx="64" fill="#22480D"/>
<rect width="128" height="128" rx="64" fill="url(#pattern0_161_51)" fill-opacity="0.68"/>
<path d="M62.6449 20.7103C75.4189 20.653 85.7932 24.8135 85.8164 30.0029L86.1519 104.85C86.125 110.022 75.8074 114.255 63.0644 114.312C50.3214 114.369 39.9671 110.229 39.8938 105.057L39.5576 30.2102C39.5344 25.0208 49.8709 20.7675 62.6449 20.7103Z" fill="#FF7DAF"/>
<path d="M63.0095 102.025C66.8016 102.008 69.8828 103.572 69.8918 105.518L70.1461 162.251C70.1497 162.282 70.1532 162.314 70.1534 162.346C70.1584 163.645 67.1519 164.623 63.3602 164.64C59.5786 164.656 56.4437 163.703 56.4204 162.409L56.4135 162.409L56.1588 105.58C56.1503 103.633 59.2174 102.042 63.0095 102.025Z" fill="#FF7DAF"/>
<path d="M40.9465 22.4257L42.2657 21.3233L43.7467 20.2871C45.3109 19.4121 47.0702 19.0467 48.8361 19.104L50.6882 19.1444L52.5659 19.2143L52.5953 19.1885C52.6467 19.1694 52.7961 19.1444 52.9959 18.9938L54.7157 17.6967L56.4649 16.3738L58.8902 14.8746C59.3375 14.6851 60.1583 14.4143 61.1648 14.3896C62.214 14.3656 63.6954 14.6713 64.9424 15.8595L68.5803 16.1021L72.4093 16.3852L74.3385 16.5138L76.2384 16.6682L79.5345 17.4694C80.5695 17.8901 81.5504 18.4478 82.4375 19.1855L83.9074 20.3908L85.3735 21.6513L87.4203 23.7532L88.971 26.2374L89.6912 27.891L90.4665 29.5483L92.0134 34.1637L92.3882 36.0158L92.7887 37.8972L93.2075 42.825L93.0678 46.5805C93.0071 48.3414 92.6796 50.0911 92.1123 51.7765L91.4618 53.6433L90.8665 55.5137L89.6501 59.2251L89.0254 61.1212L88.4043 62.9622L88.0992 65.0458L88.1396 66.9309L88.2094 68.7903L88.6136 71.0318L89.264 72.9023L89.9401 74.8021C90.4712 76.3347 90.8477 77.8949 91.0681 79.4727L91.329 81.3725L91.5641 83.2429C91.6864 84.1239 91.7631 85.0037 91.7478 85.885L91.4868 88.5528L91.1414 90.4122L90.851 92.2753L90.7848 94.5132L91.0494 96.3579L91.3102 98.2577C91.4419 99.2214 91.4688 100.185 91.3947 101.142L90.8434 104.012L90.3142 105.721L89.9357 106.831L90.5788 107.15L88.712 110.652C87.9486 112.086 86.9882 113.521 85.7611 114.636C84.5708 115.712 82.9303 116.609 80.9141 116.749L80.8554 116.8L77.9376 117.796L77.2909 117.946C77.3296 118.851 77.3393 119.732 77.1696 120.596L76.1002 123.763L75.1447 125.637L74.2186 127.486L73.2962 130.11L72.4363 133.872L72.2525 136.213L72.5023 139.939L73.0461 141.747L74.9569 145.473C75.7641 147.054 76.198 148.785 76.1951 150.567L76.0738 152.386L75.7284 154.245L75.4086 156.134C75.2724 156.907 75.0625 157.698 74.8096 158.474L73.799 160.76L72.5496 162.891C71.4793 164.695 69.8687 165.706 68.2318 166.202L66.6039 166.537L63.4804 166.882C62.7188 166.964 61.904 166.995 61.0698 166.915L58.5085 166.301L57.4576 165.871L56.4617 165.445C52.6199 163.877 52.3126 159.968 52.4014 158.254L52.4969 156.405L52.5962 154.502L52.3464 152.437L51.8062 150.573L51.2404 148.681L50.3328 144.025L49.9728 140.292L50.1125 136.951C50.3222 135.876 50.6931 134.833 51.1782 133.839L52.0785 131.961L53.034 130.087L53.0377 130.032L52.4681 128.195L51.8471 126.298L51.2409 123.767C51.0924 122.904 50.9936 122.025 50.9727 121.146L50.958 119.291L50.9176 117.821L49.7932 117.248L48.0808 116.358C47.1957 115.9 46.3545 115.414 45.5453 114.943L43.7667 115.046C42.4006 115.114 40.3989 114.904 38.6957 113.462C36.9156 111.953 36.4031 109.918 36.3477 108.406L36.311 106.466L36.2191 104.522C36.1673 103.061 36.207 101.615 36.3148 100.182L36.4398 98.308L36.5941 96.4082L36.675 93.1193L36.6604 91.2636L36.6494 89.3528L36.565 85.6376L36.5246 83.7525L36.5099 81.8968L36.4953 77.9649L36.51 76.0834L36.5505 74.2314C36.5523 74.1062 36.531 73.7798 36.1757 73.2098L33.824 69.4543L32.9384 67.7896C32.2156 66.0639 31.9449 64.1559 32.3175 62.1563L32.6666 60.2418L33.0121 58.3824L33.0673 56.3099L32.8064 54.41L32.5161 52.5359L32.5493 49.1332C32.7291 48.0306 33.0561 46.9555 33.5378 45.9325L35.3385 42.1771L36.0809 39.7628L36.3712 37.8997L36.6909 36.011C36.841 35.0444 36.8871 34.2209 36.8563 33.5305L36.7719 31.8916L36.7131 30.2821L36.816 28.3235C37.1723 26.4361 38.2012 24.792 39.6824 23.5318L40.9465 22.4257ZM62.0148 134.478L61.0594 136.353L60.159 138.23L59.8944 139.292L60.1296 141.163L60.3096 143.029L60.8387 145.888L61.3788 147.751L61.9447 149.644C62.2012 150.524 62.4065 151.412 62.5142 152.312L62.6097 155.031L62.4847 156.905L62.4553 156.931L63.962 156.755L64.5756 156.685L65.1967 155.674L65.2996 155.377C65.3715 155.156 65.4537 154.835 65.5311 154.395L65.8766 152.536L66.1963 150.647L66.042 150.056L65.0866 148.193L64.1606 146.304L63.0436 143.544C62.769 142.591 62.6125 141.61 62.5475 140.604L62.3969 138.712L62.272 136.849L62.3051 134.276C62.3295 133.964 62.3824 133.655 62.4228 133.343C62.2882 133.719 62.1928 134.114 62.0148 134.478ZM60.9825 120.9L61.3794 123.252L62.0003 125.148L62.5956 127.015C62.9311 128.07 63.0401 129.129 63.0218 130.172L63.099 129.845L63.5032 127.934L64.2492 125.465C64.544 124.645 64.9007 123.837 65.2966 123.043L66.1969 121.165L66.9025 119.717C66.4387 119.731 65.9687 119.838 65.4877 119.761L64.3927 119.578L62.4745 119.284L60.9201 119.346L60.9825 120.9ZM46.8258 33.0604C46.8922 34.522 46.791 36.0309 46.5538 37.5545L46.2634 39.4176L45.9694 41.3358C45.6929 43.0945 45.1302 44.794 44.3561 46.4325L43.4815 48.3397L42.6106 50.1917L42.4121 51.092L42.7024 52.9661L42.9669 54.8108C43.0998 55.712 43.136 56.6324 43.1175 57.5337L42.8529 60.2567L42.5074 62.1161L42.1105 63.9167L43.4664 66.0002L44.6423 67.878C45.8441 69.7943 46.5687 71.9971 46.5346 74.3713L46.5199 76.2527L46.4794 78.1047L46.4904 81.6765L46.6519 89.217L46.6372 91.0984L46.6776 92.9836L46.5635 97.1837L46.4128 99.0284L46.2585 100.928C46.1918 101.814 46.172 102.717 46.1886 103.636C46.3923 103.77 46.6263 103.929 46.9052 104.1L48.1545 104.875C49.635 104.874 51.0667 105.154 52.4759 105.661C53.0017 104.696 53.7277 103.738 54.8388 103.023L55.8494 102.398L56.8893 101.748L57.1833 101.491L57.7897 100.701L58.3703 99.8812L59.2669 98.8891C60.3025 97.9809 61.7474 97.347 63.4598 97.4523C64.3698 97.5094 65.1513 97.7927 65.7969 98.1065L67.2851 99.0362L68.4132 99.9696L69.5707 100.877L71.3382 102.601L72.8117 104.581L73.8663 106.202L74.3918 107.04C75.0356 106.947 75.6845 106.847 76.343 106.838L77.699 106.845L78.3458 106.279L79.812 105.048L80.2125 104.438L80.7711 102.704L81.326 101.025L81.3922 99.6171L81.1571 97.7467L80.8962 95.8469L80.7125 93.2048C80.7291 92.3253 80.847 91.4414 80.9992 90.5663L81.319 88.6776L81.635 86.8439L81.6718 84.6317L81.4109 82.7319L81.1758 80.8615C81.0492 79.952 80.8085 78.9995 80.4777 78.0467L79.1769 74.3058L78.4898 71.7408C78.3259 70.8674 78.2212 69.9843 78.1959 69.0914L78.1555 67.2063L78.0857 65.3469L78.2695 62.5909C78.4044 61.6807 78.6319 60.7798 78.92 59.8936L80.1107 56.1528L81.3895 52.3349L82.0143 50.4387L82.6353 48.5977L83.069 46.2459L83.2087 42.4904L82.992 39.9291L82.5915 38.0477L82.2167 36.1956L81.4377 33.763L79.887 30.4484L78.9941 29.3092L77.5243 28.1039L76.0287 26.8691L75.4628 26.6376L73.563 26.4832L71.6338 26.3546L67.915 26.0789L64.1668 25.829C63.4215 25.7786 62.6175 25.6894 61.8628 25.5092C61.7246 25.476 61.4948 25.3924 61.2124 25.2997L60.7457 25.6562L58.9965 26.979C57.5626 28.0583 55.9089 28.8063 54.0944 29.0882L52.2313 29.2131L50.3536 29.1432L48.5015 29.1028L46.7376 30.6461L46.8258 33.0604ZM63.7535 109.237C63.7084 109.184 63.6667 109.136 63.6249 109.09C63.5753 109.133 63.5281 109.177 63.4779 109.219C63.5692 109.233 63.662 109.225 63.7535 109.237Z" fill="white"/>
<path d="M62.6449 20.7103C75.4189 20.653 85.7932 24.8135 85.8164 30.0029L86.1519 104.85L86.1512 104.85C86.1243 110.022 75.8074 114.255 63.0644 114.312C50.3214 114.369 39.967 110.229 39.8938 105.057L39.8931 105.057L39.5576 30.2103C39.5344 25.0208 49.8709 20.7675 62.6449 20.7103Z" fill="url(#paint0_linear_161_51)"/>
<path d="M62.6449 20.7103C75.4189 20.653 85.7932 24.8135 85.8164 30.0029L86.1519 104.85L86.1512 104.85C86.1243 110.022 75.8074 114.255 63.0644 114.312C50.3214 114.369 39.967 110.229 39.8938 105.057L39.8931 105.057L39.5576 30.2103C39.5344 25.0208 49.8709 20.7675 62.6449 20.7103Z" fill="url(#pattern1_161_51)" fill-opacity="0.35" style="mix-blend-mode:lighten"/>
<ellipse cx="63.0223" cy="104.916" rx="23.1296" ry="9.39642" transform="rotate(-0.256786 63.0223 104.916)" fill="#EBF0F5"/>
<ellipse cx="63.0223" cy="104.916" rx="23.1296" ry="9.39642" transform="rotate(-0.256786 63.0223 104.916)" fill="url(#paint1_radial_161_51)" fill-opacity="0.68"/>
<path d="M63.009 102.025C66.8013 102.008 69.8832 103.572 69.8919 105.518L70.1466 162.347L56.4133 162.408L56.1586 105.58C56.1499 103.633 59.2169 102.042 63.009 102.025Z" fill="#D5E4F3"/>
<mask id="mask0_161_51" style="mask-type:alpha" maskUnits="userSpaceOnUse" x="56" y="102" width="15" height="61">
<path d="M63.009 102.025C66.8013 102.008 69.8832 103.572 69.8919 105.518L70.1466 162.347L56.4133 162.408L56.1586 105.58C56.1499 103.633 59.2169 102.042 63.009 102.025Z" fill="#D5E4F3"/>
</mask>
<g mask="url(#mask0_161_51)">
<g opacity="0.04">
<path d="M69.9897 107.859C69.9839 106.56 66.9049 105.52 63.1126 105.537C59.3203 105.554 56.2508 106.621 56.2566 107.921" stroke="black" stroke-linecap="round" stroke-linejoin="round"/>
<path d="M69.9892 129.35C69.9834 128.05 66.9044 127.011 63.1121 127.028C59.3199 127.045 56.2503 128.112 56.2562 129.411" stroke="black" stroke-linecap="round" stroke-linejoin="round"/>
<path d="M69.9895 118.604C69.9837 117.305 66.9047 116.265 63.1124 116.282C59.3201 116.299 56.2506 117.367 56.2564 118.666" stroke="black" stroke-linecap="round" stroke-linejoin="round"/>
<path d="M69.8685 123.656C69.8627 122.357 66.7837 121.317 62.9914 121.334C59.1991 121.351 56.1296 122.418 56.1354 123.718" stroke="black" stroke-linecap="round" stroke-linejoin="round"/>
<path d="M70.3699 112.899C70.3641 111.6 67.2851 110.56 63.4929 110.577C59.7006 110.594 56.631 111.661 56.6369 112.961" stroke="black" stroke-linecap="round" stroke-linejoin="round"/>
</g>
</g>
</g>
<defs>
<linearGradient id="paint0_linear_161_51" x1="39.7253" y1="67.6148" x2="85.9841" y2="67.4075" gradientUnits="userSpaceOnUse">
<stop stop-color="#93AD84"/>
<stop offset="0.668269" stop-color="#D5F4C4"/>
<stop offset="0.778846" stop-color="#FFDFDF"/>
<stop offset="0.894231" stop-color="#FFD8D8"/>
<stop offset="1" stop-color="#F7CFCF"/>
</linearGradient>
<radialGradient id="paint1_radial_161_51" cx="0" cy="0" r="1" gradientUnits="userSpaceOnUse" gradientTransform="translate(61.2153 102.928) rotate(72.2724) scale(23.1445 61.5152)">
<stop stop-color="#D2E0EB"/>
<stop offset="0.592538" stop-color="#4C6074"/>
<stop offset="0.783654" stop-color="#D2E0EB"/>
</radialGradient>
<clipPath id="clip0_161_51">
<rect width="128" height="128" rx="64" fill="white"/>
</clipPath>
<pattern id="pattern0_161_51" patternUnits="userSpaceOnUse" viewBox="-93.4962 311.101 42.5 85" width="24.238281883299351%" height="48.476563766598701%" x="51.59" y="51.59" patternContentUnits="objectBoundingBox">
<g id="pattern0_161_51_inner">
<circle cx="-129.996" cy="317.101" r="6" fill="#D5F4C4"/>
<circle cx="-107.996" cy="317.101" r="6" fill="#D5F4C4"/>
<circle cx="-129.996" cy="339.101" r="6" fill="#D5F4C4"/>
<circle cx="-107.996" cy="339.101" r="6" fill="#F7D4D4"/>
</g>
<use xlink:href="#pattern0_161_51_inner" transform="translate(42.5 0)"/>
<use xlink:href="#pattern0_161_51_inner" transform="translate(21.25 42.5)"/>
<use xlink:href="#pattern0_161_51_inner" transform="translate(63.75 42.5)"/>
</pattern><pattern id="pattern1_161_51" patternUnits="userSpaceOnUse" viewBox="-76.1539 257.206 19.2 38.4" width="14.111765771600615%" height="13.948308443437371%" x="21.0896" y="44.7614" patternContentUnits="objectBoundingBox">
<g id="pattern1_161_51_inner">
<circle cx="-89.3539" cy="263.206" r="6" fill="#D5F4C4"/>
</g>
<use xlink:href="#pattern1_161_51_inner" transform="translate(19.2 0)"/>
<use xlink:href="#pattern1_161_51_inner" transform="translate(9.6 19.2)"/>
<use xlink:href="#pattern1_161_51_inner" transform="translate(28.8 19.2)"/>
</pattern></defs>
</svg>
