<svg width="128" height="128" viewBox="0 0 128 128" fill="none" xmlns="http://www.w3.org/2000/svg" xmlns:xlink="http://www.w3.org/1999/xlink">
<g clip-path="url(#clip0_152_140)">
<rect width="128" height="128" fill="#22480D"/>
<rect width="128" height="128" fill="url(#pattern0_152_140)"/>
<path d="M105.568 12.99C115.116 21.2688 120.129 31.1244 116.766 35.0033L68.2582 90.9471C64.8687 94.7805 54.4297 91.2107 44.905 82.952C35.3803 74.6934 30.3683 64.8658 33.6829 60.9675L82.1902 5.02322C85.5534 1.1444 96.0199 4.71126 105.568 12.99Z" fill="#FF7DAF"/>
<path d="M52.8683 73.7682C55.7026 76.2259 56.9779 79.3975 55.7167 80.8524L18.9487 123.257C18.931 123.283 18.913 123.308 18.8924 123.332C18.0498 124.303 15.1745 123.072 12.3404 120.615C9.51389 118.164 7.80098 115.412 8.62653 114.433L8.62136 114.429L45.4521 71.9521C46.7136 70.4975 50.0339 71.3106 52.8683 73.7682Z" fill="#FF7DAF"/>
<path d="M89.5123 0.291504L91.2701 0.564941L92.9889 0.877441L96.2311 1.97119C97.2043 2.50698 98.0728 3.21649 98.8483 4.0415L101.426 6.77588L101.7 7.01025C101.735 7.03082 101.768 7.04722 101.778 7.04932L103.38 7.40088L105.02 7.75244L107.989 8.88525C108.888 9.40014 109.718 10.0659 110.45 10.7993L111.739 12.1274L115.801 16.1899L118.458 18.9243L120.411 21.6978C120.914 22.7126 121.256 23.8201 121.426 24.979L121.973 28.729L122.09 31.6978L121.505 34.6274L120.958 36.3462L120.411 38.104L118.497 42.4399L117.559 44.0806L116.622 45.7603C115.803 47.2073 114.823 48.538 113.692 49.7446L111.114 52.479C110.506 53.1269 109.856 53.7281 109.161 54.2759L106.973 55.7603L105.294 56.7368L103.575 57.7524C102.455 58.4048 101.325 59.044 100.215 59.7056L98.4967 60.7212L96.817 61.7368L95.2155 63.104L94.0045 64.5493L92.8326 65.9946L91.6608 67.9478L90.1764 71.6196L87.9498 75.9165L86.8951 77.5181L85.8795 79.0806C85.3892 79.8277 84.834 80.534 84.2389 81.1899L82.3248 82.9868L79.3561 85.4087L77.8717 87.0493L76.817 88.6118L75.7623 90.2134C75.1799 91.0948 74.5145 91.9089 73.7311 92.5962L71.0358 94.3149L69.4342 95.0571L68.9264 95.2524L69.0436 95.8774L65.9967 96.3462C64.6511 96.7142 63.2953 96.8852 61.8951 96.7759H61.8561V96.8149L61.778 96.7759L58.5748 96.6587L56.6217 96.3853L54.7076 96.0728C53.7001 95.9191 52.7684 95.5964 51.8951 95.1743L50.8014 97.2056L49.7076 98.7681L48.6139 100.292C47.9477 101.239 47.1879 102.074 46.3092 102.752L43.4186 104.393L41.4655 105.174L39.5123 105.995L37.0905 107.323L35.567 108.456L34.0045 109.588L32.3248 111.229L31.192 112.752L30.0201 114.237L29.2389 115.917L28.7311 117.948L28.2233 120.018C27.7159 122.022 26.6232 123.897 24.8248 125.135L22.7936 126.151L21.0748 126.698L19.3951 127.284C18.0273 127.75 16.2622 127.957 14.4733 127.284C13.5997 126.953 12.8834 126.459 12.2858 125.917L10.8405 124.159L9.86389 122.557L8.92639 120.995C8.52491 120.334 8.12547 119.617 7.83264 118.885C7.57321 118.237 7.18668 117.129 7.2467 115.838L7.28577 115.135L7.32483 114.393L7.94983 111.776C8.21561 111.116 8.55928 110.443 8.92639 109.784L10.8014 106.424L12.1686 104.276C12.6692 103.602 13.2218 102.967 13.8092 102.362L15.1373 100.995L16.4264 99.6665L17.5983 97.9087L19.2389 94.3931L21.6217 90.2915L22.7155 88.7681L23.8092 87.2056L26.1139 84.8228C26.9809 84.1485 27.9435 83.6128 28.9655 83.1821L30.8795 82.3618L32.8326 81.5415L32.8717 81.5024L33.6139 79.7446L33.4186 79.5103L32.3639 77.9087L31.3483 76.2681C30.7997 75.3997 30.3456 74.4892 30.0201 73.5337L29.3951 70.5259L29.2389 68.8071C28.2629 67.822 27.0671 66.1693 27.0905 63.8853C27.1188 61.454 28.5132 59.7527 29.5905 58.8071L32.6373 56.1509L35.2936 53.6509L36.6217 52.3618L37.9889 51.0337L40.2155 48.6118L41.4264 47.1665L42.6373 45.7603L45.0592 42.9087L46.2701 41.4634L47.4811 40.0571L50.0592 37.0884L51.3092 35.6821L52.5592 34.3149L52.9498 33.2993L53.3014 31.1118L53.6139 28.9243L54.0826 27.0884C54.6753 25.3125 55.726 23.6999 57.3248 22.4399L58.8483 21.229L60.3326 20.0571L61.7389 18.5337L62.7936 16.9321L63.8092 15.3306L66.0748 12.7915C66.9368 12.0801 67.8896 11.4862 68.9264 11.0337L72.7545 9.39307L74.903 8.06494L77.7936 5.64307L80.567 3.4165L81.6998 2.59619L82.7936 1.73682L84.4342 0.799316C84.9988 0.555388 85.5774 0.39978 86.153 0.291504H89.5123ZM20.9967 109.315L19.5123 111.307L18.6139 112.987L17.6764 114.627C17.5547 114.846 17.4379 115.063 17.3639 115.213C17.3411 115.26 17.303 115.293 17.2858 115.331V115.487C17.3336 115.573 17.3724 115.684 17.442 115.799L18.2233 117.088L18.653 116.932L19.0436 115.526L19.5514 113.495C20.0323 111.583 20.858 109.798 22.0514 108.221L20.9967 109.315ZM41.3092 86.854C40.5401 88.077 39.5655 89.0924 38.3795 89.8618L36.6998 90.7603L34.7858 91.5806L32.8326 92.4009L31.9733 93.0259L29.7858 96.0728L28.3405 98.6118L26.6998 102.127C26.512 102.532 26.253 102.914 26.0358 103.299C26.671 102.672 27.3411 102.076 28.067 101.542L31.192 99.2759L33.3405 97.8696C34.103 97.4457 34.9012 97.0744 35.7233 96.7368L37.6764 95.9165L39.6295 95.1353L40.4498 94.5493L41.5436 93.0259L42.5983 91.4634L43.3405 89.6665L43.5358 88.5337L42.5201 87.6743C42.3227 87.5084 42.1634 87.3004 41.9733 87.1274L41.3092 86.854ZM87.7155 10.5649L86.5826 11.4243L84.2389 13.2993L82.7545 14.5103L81.3092 15.7603C80.6261 16.3313 79.8833 16.8198 79.1217 17.2837L76.7389 18.5337L74.8248 19.354L72.9498 20.2134C72.4926 20.4124 72.3054 20.6085 72.2076 20.7603L71.192 22.3228L70.1373 23.9243C69.6447 24.6886 69.1029 25.4077 68.4967 26.0728L66.5045 27.9478L65.0201 29.1196L63.5358 30.2134L63.4967 30.4868L62.7936 34.8618C62.6148 35.9786 62.3194 37.0715 61.8561 38.104L59.9811 40.9946L58.7311 42.4009L57.4811 43.7681L55.1373 46.4634L52.7155 49.354L50.2545 52.2446L49.0436 53.6509L47.8326 55.0962L44.9811 58.1821L43.653 59.4712L42.2858 60.7993L39.2389 63.6509L38.8873 63.9243C38.8942 64.0217 38.8791 64.1269 38.8873 64.2368L39.317 64.6274L41.2311 66.9321C41.5734 67.4325 41.8178 67.9866 42.0905 68.5337C43.4639 67.773 45.0596 67.3771 46.817 67.5571L48.4967 67.7524L50.2155 67.9087L51.8561 68.1431L53.8483 68.729L54.2389 68.8853L54.5905 69.0415L56.2701 70.2524C56.5603 70.5476 56.8249 70.866 57.0123 71.1118C57.3903 71.6077 57.7656 72.2159 58.1451 72.8306L59.1998 74.4712L60.2155 76.1509L61.192 78.5728C61.3916 79.5293 61.4 80.614 61.0358 81.7759C60.6852 82.8926 60.0969 83.7671 59.4342 84.4321L57.442 85.8774L57.2467 85.9556L57.5201 86.1118L58.8873 86.5415L60.7623 86.6978H60.9967C61.6706 86.6881 62.6602 86.7532 64.0045 86.5415L65.2545 85.9556L66.8561 85.2134L67.442 84.7056L68.4576 83.104L69.5123 81.5415L71.1139 79.4321C71.707 78.7787 72.374 78.1954 73.067 77.6353L76.0358 75.2134L77.5201 73.6118L78.5358 72.0103L79.5905 70.4478L80.9186 67.8696L82.403 64.1978L83.5748 61.8149C84.0262 61.0494 84.5298 60.3164 85.0983 59.6274L87.5201 56.7368L89.4342 54.7446C90.1318 54.1525 90.904 53.6176 91.6998 53.1431L93.3795 52.1665L101.973 47.0884L103.809 45.6431L106.387 42.9087C106.964 42.2939 107.476 41.6063 107.911 40.8384L108.848 39.1587L109.786 37.5181L110.88 35.0181L111.426 33.2993L112.012 31.5806L112.09 30.2134L111.817 28.2993L111.544 26.4243L111.27 25.9165L109.942 24.5103L108.614 23.1431L105.997 20.4868L103.34 17.8306C103.055 17.5487 102.901 17.5245 102.872 17.5181L101.27 17.1665L99.6295 16.8149C97.436 16.3346 95.6155 15.1589 94.1608 13.6118L91.5826 10.8774L91.3873 10.7212H91.3483L89.5905 10.4087L88.1842 10.1743L87.7155 10.5649ZM47.2858 78.2212L47.7545 78.729L48.692 79.1196L48.7701 79.1587C48.8721 79.1005 48.9777 79.0186 49.0826 78.9634L49.903 78.4946L49.6295 78.0649C49.5939 78.0072 49.5453 77.9612 49.5123 77.9087L49.1608 77.8696L47.4811 77.6743L46.8561 77.5962L47.2858 78.2212Z" fill="white"/>
<path d="M105.568 12.99C115.116 21.2688 120.129 31.1244 116.766 35.0033L68.2581 90.9471L68.2576 90.9466C64.8682 94.78 54.4297 91.2107 44.905 82.9521C35.3803 74.6934 30.3683 64.8658 33.6828 60.9675L33.6823 60.967L82.1901 5.02321C85.5534 1.1444 96.0199 4.71126 105.568 12.99Z" fill="url(#paint0_linear_152_140)"/>
<path d="M105.568 12.99C115.116 21.2688 120.129 31.1244 116.766 35.0033L68.2581 90.9471L68.2576 90.9466C64.8682 94.78 54.4297 91.2107 44.905 82.9521C35.3803 74.6934 30.3683 64.8658 33.6828 60.9675L33.6823 60.967L82.1901 5.02321C85.5534 1.1444 96.0199 4.71126 105.568 12.99Z" fill="url(#pattern1_152_140)" fill-opacity="0.35" style="mix-blend-mode:lighten"/>
<ellipse cx="50.9947" cy="75.9288" rx="22.8817" ry="9.2957" transform="rotate(40.9279 50.9947 75.9288)" fill="#EBF0F5"/>
<ellipse cx="50.9947" cy="75.9288" rx="22.8817" ry="9.2957" transform="rotate(40.9279 50.9947 75.9288)" fill="url(#paint1_radial_152_140)" fill-opacity="0.68"/>
<path d="M52.8684 73.7678C55.7028 76.2255 56.978 79.3971 55.7168 80.852L18.8861 123.329L8.62145 114.428L45.4522 71.9517C46.7137 70.4971 50.034 71.3102 52.8684 73.7678Z" fill="#D5E4F3"/>
<ellipse cx="13.8653" cy="118.856" rx="6.79301" ry="2.32771" transform="rotate(40.9279 13.8653 118.856)" fill="#8697A7"/>
<path d="M17.9046 122.428C17.3214 123.101 15.0345 122.073 12.7967 120.133C10.5589 118.192 9.21765 116.074 9.80089 115.401C10.3841 114.729 12.671 115.756 14.9088 117.697C17.1466 119.637 18.4878 121.755 17.9046 122.428Z" fill="#1C3F5E"/>
<mask id="mask0_152_140" style="mask-type:alpha" maskUnits="userSpaceOnUse" x="8" y="71" width="49" height="53">
<path d="M52.8684 73.7678C55.7028 76.2255 56.978 79.3971 55.7168 80.852L18.8861 123.329L8.62145 114.428L45.4522 71.9517C46.7137 70.4971 50.034 71.3102 52.8684 73.7678Z" fill="#D5E4F3"/>
</mask>
<g mask="url(#mask0_152_140)">
<g opacity="0.04">
<path d="M23.2646 118.659C24.1068 117.688 22.4917 114.908 19.6572 112.45C16.8227 109.992 13.8421 108.787 12.9999 109.759" stroke="black" stroke-linecap="round" stroke-linejoin="round"/>
<path d="M54.2646 82.659C55.1068 81.6877 53.4917 78.9079 50.6572 76.4502C47.8227 73.9924 44.8421 72.7874 43.9999 73.7587" stroke="black" stroke-linecap="round" stroke-linejoin="round"/>
<path d="M40.2646 98.659C41.1068 97.6877 39.4917 94.9079 36.6572 92.4502C33.8227 89.9924 30.8421 88.7874 29.9999 89.7587" stroke="black" stroke-linecap="round" stroke-linejoin="round"/>
<path d="M47.2646 90.659C48.1068 89.6877 46.4917 86.9079 43.6572 84.4502C40.8227 81.9924 37.8421 80.7874 36.9999 81.7587" stroke="black" stroke-linecap="round" stroke-linejoin="round"/>
<path d="M26.2646 114.659C27.1068 113.688 25.4917 110.908 22.6572 108.45C19.8227 105.992 16.8421 104.787 15.9999 105.759" stroke="black" stroke-linecap="round" stroke-linejoin="round"/>
<path d="M29.6932 110.596C30.5353 109.624 28.9202 106.844 26.0857 104.387C23.2512 101.929 20.2706 100.724 19.4285 101.695" stroke="black" stroke-linecap="round" stroke-linejoin="round"/>
<path d="M33.2646 106.659C34.1068 105.688 32.4917 102.908 29.6572 100.45C26.8227 97.9924 23.8421 96.7874 22.9999 97.7587" stroke="black" stroke-linecap="round" stroke-linejoin="round"/>
<path d="M37.2646 102.659C38.1068 101.688 36.4917 98.9079 33.6572 96.4502C30.8227 93.9924 27.8421 92.7874 26.9999 93.7587" stroke="black" stroke-linecap="round" stroke-linejoin="round"/>
<path d="M43.8837 94.3415C44.7258 93.3702 43.1107 90.5904 40.2762 88.1327C37.4417 85.6749 34.4611 84.4699 33.619 85.4412" stroke="black" stroke-linecap="round" stroke-linejoin="round"/>
<path d="M51.2646 86.659C52.1068 85.6877 50.4917 82.9079 47.6572 80.4502C44.8227 77.9924 41.8421 76.7874 40.9999 77.7587" stroke="black" stroke-linecap="round" stroke-linejoin="round"/>
</g>
</g>
</g>
<defs>
<linearGradient id="paint0_linear_152_140" x1="57.9485" y1="32.981" x2="92.5243" y2="62.9611" gradientUnits="userSpaceOnUse">
<stop stop-color="#93AD84"/>
<stop offset="0.668269" stop-color="#D5F4C4"/>
<stop offset="0.778846" stop-color="#FFDFDF"/>
<stop offset="0.894231" stop-color="#FFD8D8"/>
<stop offset="1" stop-color="#F7CFCF"/>
</linearGradient>
<radialGradient id="paint1_radial_152_140" cx="0" cy="0" r="1" gradientUnits="userSpaceOnUse" gradientTransform="translate(49.2071 73.9625) rotate(72.2724) scale(22.8964 60.8558)">
<stop stop-color="#D2E0EB"/>
<stop offset="0.592538" stop-color="#4C6074"/>
<stop offset="0.783654" stop-color="#D2E0EB"/>
</radialGradient>
<clipPath id="clip0_152_140">
<rect width="128" height="128" fill="white"/>
</clipPath>
<pattern id="pattern0_152_140" patternUnits="userSpaceOnUse" viewBox="113.504 311.101 42.5 85" width="24.238281883299351%" height="48.476563766598701%" x="51.59" y="51.59" patternContentUnits="objectBoundingBox">
<g id="pattern0_152_140_inner">
<circle cx="77.0038" cy="317.101" r="6" fill="#D5F4C4"/>
<circle cx="99.0038" cy="317.101" r="6" fill="#D5F4C4"/>
<circle cx="77.0038" cy="339.101" r="6" fill="#D5F4C4"/>
<circle cx="99.0038" cy="339.101" r="6" fill="#F7D4D4"/>
</g>
<use xlink:href="#pattern0_152_140_inner" transform="translate(42.5 0)"/>
<use xlink:href="#pattern0_152_140_inner" transform="translate(21.25 42.5)"/>
<use xlink:href="#pattern0_152_140_inner" transform="translate(63.75 42.5)"/>
</pattern><pattern id="pattern1_152_140" patternUnits="userSpaceOnUse" viewBox="130.846 257.206 19.2 38.4" width="14.264667651445118%" height="14.09944011761535%" x="20.8417" y="44.2597" patternContentUnits="objectBoundingBox">
<g id="pattern1_152_140_inner">
<circle cx="117.646" cy="263.206" r="6" fill="#D5F4C4"/>
</g>
<use xlink:href="#pattern1_152_140_inner" transform="translate(19.2 0)"/>
<use xlink:href="#pattern1_152_140_inner" transform="translate(9.6 19.2)"/>
<use xlink:href="#pattern1_152_140_inner" transform="translate(28.8 19.2)"/>
</pattern></defs>
</svg>
