<svg width="128" height="128" viewBox="0 0 128 128" fill="none" xmlns="http://www.w3.org/2000/svg" xmlns:xlink="http://www.w3.org/1999/xlink">
<g clip-path="url(#clip0_152_140)">
<rect width="128" height="128" fill="#22480D"/>
<rect width="128" height="128" fill="url(#pattern0_152_140)" fill-opacity="0.69"/>
<path d="M105.568 12.99C115.116 21.2688 120.129 31.1244 116.766 35.0033L68.2582 90.9471C64.8687 94.7804 54.4297 91.2107 44.905 82.952C35.3803 74.6934 30.3683 64.8658 33.6829 60.9675L82.1902 5.02322C85.5534 1.1444 96.0199 4.71126 105.568 12.99Z" fill="#FF7DAF"/>
<path d="M52.8683 73.7682C55.7026 76.2259 56.9779 79.3975 55.7167 80.8524L18.9487 123.257C18.931 123.283 18.913 123.308 18.8924 123.332C18.0498 124.303 15.1745 123.072 12.3404 120.615C9.51389 118.164 7.80098 115.412 8.62653 114.433L8.62136 114.429L45.4521 71.9521C46.7136 70.4975 50.0339 71.3106 52.8683 73.7682Z" fill="#FF7DAF"/>
<path d="M108.215 15.6423L104.676 19.1743L108.215 15.6423ZM109.538 16.9685L113.077 13.4365L109.538 16.9685ZM112.197 19.6711L108.609 23.1532L112.197 19.6711ZM114.869 22.424L118.457 18.9419L114.869 22.424ZM116.482 25.6915L111.535 26.4177L116.482 25.6915ZM117.038 29.4736L121.985 28.7474L117.038 29.4736ZM116.758 33.0972L111.998 31.5663L116.758 33.0972ZM115.643 36.5624L120.403 38.0933L115.643 36.5624ZM114.145 39.9602L118.497 42.4213L114.145 39.9602ZM113.203 41.6254L108.851 39.1643L113.203 41.6254ZM112.261 43.2906L116.614 45.7517L112.261 43.2906ZM110.036 46.3246L113.683 49.7447L110.036 46.3246ZM108.753 47.6934L112.4 51.1135L108.753 47.6934ZM107.469 49.0621L111.116 52.4823L107.469 49.0621ZM104.473 51.428L101.957 47.1071L104.473 51.428ZM101.049 53.4221L103.565 57.7429L101.049 53.4221ZM97.6409 55.4304L95.08 51.136L97.6409 55.4304ZM95.945 56.4416L93.3841 52.1472L95.945 56.4416ZM94.2492 57.4529L96.8101 61.7473L94.2492 57.4529ZM91.3578 59.9092L95.2102 63.0965L91.3578 59.9092ZM88.9667 62.7993L85.1143 59.612L88.9667 62.7993ZM87.0275 66.0813L82.3929 64.2052L87.0275 66.0813ZM86.284 67.9182L81.6493 66.0422L86.284 67.9182ZM85.5404 69.7552L90.1751 71.6313L85.5404 69.7552ZM83.7589 73.1738L87.9392 75.917L83.7589 73.1738ZM81.683 76.3373L77.5027 73.5941L81.683 76.3373ZM79.1637 79.1162L76.0209 75.2275L79.1637 79.1162ZM77.6824 80.3134L74.5395 76.4247L77.6824 80.3134ZM76.201 81.5107L79.3439 85.3994L76.201 81.5107ZM73.6795 84.2877L69.5033 81.5383L73.6795 84.2877ZM71.5993 87.4474L75.7755 90.1968L71.5993 87.4474ZM68.9515 89.7697L71.0477 94.3091L68.9515 89.7697ZM65.7359 91.2546L67.8321 95.794L65.7359 91.2546ZM62.2482 91.8428L61.8391 96.826L62.2482 91.8428ZM58.4883 91.5342L58.0793 96.5174L58.4883 91.5342ZM54.9755 90.4048L52.4121 94.6977L54.9755 90.4048ZM53.3426 89.4298L55.906 85.1369L53.3426 89.4298ZM48.6328 86.2663L45.4163 90.0945L48.6328 86.2663ZM47.1886 85.053L50.405 81.2248L47.1886 85.053ZM45.7445 83.8397L42.5281 87.6678L45.7445 83.8397ZM43.2152 81.0896L39.1309 83.9739L43.2152 81.0896ZM41.0447 78.0161L36.9605 80.9004L41.0447 78.0161ZM39.2996 74.7795L34.6384 76.5887L39.2996 74.7795ZM37.9799 71.3796L42.6411 69.5703L37.9799 71.3796ZM35.8272 68.2368L32.3524 71.8321L35.8272 68.2368ZM34.3343 66.794L37.8091 63.1987L34.3343 66.794ZM32.8415 65.3511L29.3667 68.9464L32.8415 65.3511ZM32.8739 62.5695L36.1722 66.3272L32.8739 62.5695ZM35.9244 59.8919L32.626 56.1341L35.9244 59.8919ZM38.7915 57.2348L42.2956 60.8015L38.7915 57.2348ZM41.4751 54.5983L37.971 51.0316L41.4751 54.5983ZM44.0318 51.8518L47.8403 55.0915L44.0318 51.8518ZM45.2467 50.4236L41.4382 47.1839L45.2467 50.4236ZM46.4617 48.9953L50.2701 52.235L46.4617 48.9953ZM48.8834 46.1319L45.0566 42.9139L48.8834 46.1319ZM50.0903 44.6966L53.9172 47.9146L50.0903 44.6966ZM51.2972 43.2614L47.4703 40.0435L51.2972 43.2614ZM53.759 40.4326L50.0437 37.0866L53.759 40.4326ZM56.269 37.6456L59.9844 40.9917L56.269 37.6456ZM57.8727 34.0728L62.8099 34.8626L57.8727 34.0728ZM58.2213 31.8934L53.2841 31.1035L58.2213 31.8934ZM58.57 29.714L63.5072 30.5039L58.57 29.714ZM60.4204 26.3552L57.3321 22.423L60.4204 26.3552ZM61.9222 25.1756L65.0106 29.1078L61.9222 25.1756ZM63.424 23.9961L66.5124 27.9283L63.424 23.9961ZM65.9517 21.2245L70.1547 23.9327L65.9517 21.2245ZM66.9776 19.6323L62.7746 16.9241L66.9776 19.6323ZM68.0035 18.0402L72.2065 20.7484L68.0035 18.0402ZM70.9348 15.6185L72.9308 20.2028L70.9348 15.6185ZM72.8402 14.7889L70.8442 10.2045L72.8402 14.7889ZM74.7455 13.9593L76.7415 18.5436L74.7455 13.9593ZM78.1067 11.9103L74.8962 8.07724L78.1067 11.9103ZM81.0184 9.47154L84.2289 13.3046L81.0184 9.47154ZM83.5873 7.41627L86.5897 11.4145L83.5873 7.41627ZM85.8136 5.74449L82.8112 1.74627L85.8136 5.74449ZM88.6761 5.203L89.5059 0.272333L88.6761 5.203ZM92.1749 5.7918L91.3451 10.7225L92.1749 5.7918ZM95.2126 7.45682L98.8558 4.03231L95.2126 7.45682ZM96.501 8.82744L92.8578 12.252L96.501 8.82744ZM103.945 12.6347L102.876 17.5189L103.945 12.6347ZM106.891 14.3162L103.352 17.8481L106.891 14.3162ZM64.771 91.4719L63.9932 86.5328L64.771 91.4719ZM59.3254 91.7299L58.5714 96.6728L59.3254 91.7299ZM55.4575 91.1399L56.2115 86.1971L55.4575 91.1399ZM52.3006 89.2595L56.2597 86.2057L52.3006 89.2595ZM51.0777 87.6742L47.1187 90.728L51.0777 87.6742ZM49.8549 86.0888L53.8139 83.035L49.8549 86.0888ZM47.7002 84.1156L45.7788 88.7316L47.7002 84.1156ZM44.905 82.952L40.4485 85.2191L41.2835 86.8604L42.9835 87.5681L44.905 82.952ZM44.8597 82.8629L49.3162 80.5959L48.7562 79.4951L47.7481 78.7816L44.8597 82.8629ZM41.7602 80.6694L38.8718 84.7507L41.7602 80.6694ZM37.633 76.8515L41.8583 74.1781L37.633 76.8515ZM36.6053 75.2271L32.38 77.9004L36.6053 75.2271ZM35.5775 73.6027L31.3522 76.276L35.5775 73.6027ZM34.3894 70.1163L29.4079 70.5452L34.3894 70.1163ZM34.0688 66.3923L29.0872 66.8212L34.0688 66.3923ZM33.858 63.6324L28.8659 63.9126L33.858 63.6324ZM33.8076 62.7345L28.8103 62.897L28.8122 62.9559L28.8155 63.0148L33.8076 62.7345ZM33.7522 61.0279L38.7495 60.8655L38.7134 59.753L38.2087 58.7609L33.7522 61.0279ZM55.9659 78.7841L51.7117 81.4113L55.9659 78.7841ZM55.1329 81.4378L57.4613 85.8625L55.1329 81.4378ZM51.4019 83.4012L49.0734 78.9764L51.4019 83.4012ZM49.0996 86.4859L53.9952 87.5025L49.0996 86.4859ZM48.2262 90.6919L43.3306 89.6752L48.2262 90.6919ZM46.7063 94.3374L42.6144 91.4641L46.7063 94.3374ZM41.514 99.762L43.4118 104.388L41.514 99.762ZM37.6283 101.356L35.7305 96.7303L37.6283 101.356ZM34.1378 103.293L31.1727 99.2671L34.1378 103.293ZM31.0426 105.573L34.0077 109.599L31.0426 105.573ZM28.3513 108.202L24.3851 105.158L28.3513 108.202ZM26.0637 111.182L30.0299 114.227L26.0637 111.182ZM24.4074 114.709L19.5585 113.489L24.4074 114.709ZM21.1693 121.401L22.783 126.133L21.1693 121.401ZM19.469 121.981L17.8553 117.248L19.469 121.981ZM17.7687 122.56L16.155 117.828L17.7687 122.56ZM15.1079 121.559L10.8343 124.154L15.1079 121.559ZM13.187 118.396L8.91337 120.991L13.187 118.396ZM12.2606 116.081L7.26598 115.849L12.2606 116.081ZM12.2947 115.349L17.2893 115.581L12.2947 115.349ZM13.2953 112.21L8.9278 109.776L13.2953 112.21ZM15.1603 108.863L19.5278 111.297L15.1603 108.863ZM17.4008 105.843L20.9885 109.325L17.4008 105.843ZM18.7088 104.495L15.1211 101.013L18.7088 104.495ZM20.0168 103.148L23.6046 106.63L20.0168 103.148ZM22.1461 100.03L26.6815 102.135L22.1461 100.03ZM22.9673 98.2609L18.4319 96.1561L22.9673 98.2609ZM23.7886 96.4913L28.324 98.5961L23.7886 96.4913ZM25.7024 93.1874L29.7752 96.0878L25.7024 93.1874ZM26.7951 91.6531L22.7223 88.7527L26.7951 91.6531ZM27.8877 90.1188L23.8149 87.2184L27.8877 90.1188ZM30.9077 87.774L32.8459 92.3831L30.9077 87.774ZM32.8351 86.9636L30.897 82.3545L32.8351 86.9636ZM34.7625 86.1531L36.7007 90.7622L34.7625 86.1531ZM37.473 83.5399L42.059 85.5319L37.473 83.5399ZM39.039 79.9344L43.6251 81.9264L39.039 79.9344ZM42.224 75.251L38.3838 72.049L42.224 75.251ZM43.425 73.8106L47.2652 77.0126L43.425 73.8106ZM46.3111 72.5451L45.7951 77.5184L46.3111 72.5451ZM47.9963 72.72L48.5123 67.7467L47.9963 72.72ZM51.7421 73.2443L49.6332 77.7778L51.7421 73.2443ZM52.4929 73.5936L54.6018 69.0601L52.4929 73.5936ZM53.9008 75.4402L58.155 72.8131L53.9008 75.4402ZM108.215 15.6423L104.676 19.1743L105.999 20.5004L109.538 16.9685L113.077 13.4365L111.754 12.1104L108.215 15.6423ZM109.538 16.9685L105.999 20.5004C106.865 21.3676 107.735 22.2519 108.609 23.1532L112.197 19.6711L115.786 16.189C114.879 15.255 113.976 14.3375 113.077 13.4365L109.538 16.9685ZM112.197 19.6711L108.609 23.1532L109.945 24.5297L113.533 21.0476L117.121 17.5655L115.786 16.189L112.197 19.6711ZM113.533 21.0476L109.945 24.5297L111.281 25.9062L114.869 22.424L118.457 18.9419L117.121 17.5655L113.533 21.0476ZM114.869 22.424L111.281 25.9062C111.443 26.0734 111.503 26.1995 111.535 26.4177L116.482 25.6915L121.429 24.9654C121.091 22.6622 120.076 20.6099 118.457 18.9419L114.869 22.424ZM116.482 25.6915L111.535 26.4177L111.813 28.3088L116.76 27.5826L121.707 26.8564L121.429 24.9654L116.482 25.6915ZM116.76 27.5826L111.813 28.3088L112.091 30.1998L117.038 29.4736L121.985 28.7474L121.707 26.8564L116.76 27.5826ZM117.038 29.4736L112.091 30.1998C112.17 30.7427 112.124 31.176 111.998 31.5663L116.758 33.0972L121.518 34.6281C122.135 32.7083 122.275 30.7259 121.985 28.7474L117.038 29.4736ZM116.758 33.0972L111.998 31.5663L111.441 33.2989L116.201 34.8298L120.961 36.3607L121.518 34.6281L116.758 33.0972ZM116.201 34.8298L111.441 33.2989L110.884 35.0315L115.643 36.5624L120.403 38.0933L120.961 36.3607L116.201 34.8298ZM115.643 36.5624L110.884 35.0315C110.621 35.8474 110.261 36.6693 109.792 37.4991L114.145 39.9602L118.497 42.4213C119.283 41.0307 119.923 39.5874 120.403 38.0933L115.643 36.5624ZM114.145 39.9602L109.792 37.4991L108.851 39.1643L113.203 41.6254L117.555 44.0865L118.497 42.4213L114.145 39.9602ZM113.203 41.6254L108.851 39.1643L107.909 40.8295L112.261 43.2906L116.614 45.7517L117.555 44.0865L113.203 41.6254ZM112.261 43.2906L107.909 40.8295C107.473 41.5998 106.967 42.2881 106.389 42.9045L110.036 46.3246L113.683 49.7447C114.817 48.5361 115.794 47.2017 116.614 45.7517L112.261 43.2906ZM110.036 46.3246L106.389 42.9045L105.105 44.2732L108.753 47.6934L112.4 51.1135L113.683 49.7447L110.036 46.3246ZM108.753 47.6934L105.105 44.2732L103.822 45.642L107.469 49.0621L111.116 52.4823L112.4 51.1135L108.753 47.6934ZM107.469 49.0621L103.822 45.642C103.316 46.1818 102.704 46.6726 101.957 47.1071L104.473 51.428L106.989 55.7488C108.526 54.8539 109.911 53.7675 111.116 52.4823L107.469 49.0621ZM104.473 51.428L101.957 47.1071L100.245 48.1042L102.761 52.425L105.277 56.7458L106.989 55.7488L104.473 51.428ZM102.761 52.425L100.245 48.1042L98.5328 49.1012L101.049 53.4221L103.565 57.7429L105.277 56.7458L102.761 52.425ZM101.049 53.4221L98.5328 49.1012C97.3764 49.7746 96.2255 50.4529 95.08 51.136L97.6409 55.4304L100.202 59.7248C101.317 59.0595 102.438 58.3989 103.565 57.7429L101.049 53.4221ZM97.6409 55.4304L95.08 51.136L93.3841 52.1472L95.945 56.4416L98.5059 60.736L100.202 59.7248L97.6409 55.4304ZM95.945 56.4416L93.3841 52.1472L91.6883 53.1585L94.2492 57.4529L96.8101 61.7473L98.5059 60.736L95.945 56.4416ZM94.2492 57.4529L91.6883 53.1585C90.0933 54.1097 88.6855 55.2956 87.5054 56.7219L91.3578 59.9092L95.2102 63.0965C95.6243 62.5961 96.144 62.1445 96.8101 61.7473L94.2492 57.4529ZM91.3578 59.9092L87.5054 56.7219L86.3099 58.1669L90.1623 61.3543L94.0147 64.5416L95.2102 63.0965L91.3578 59.9092ZM90.1623 61.3543L86.3099 58.1669L85.1143 59.612L88.9667 62.7993L92.8191 65.9866L94.0147 64.5416L90.1623 61.3543ZM88.9667 62.7993L85.1143 59.612C83.9728 60.9916 83.0698 62.533 82.3929 64.2052L87.0275 66.0813L91.6622 67.9574C91.9768 67.1803 92.3665 66.5337 92.8191 65.9866L88.9667 62.7993ZM87.0275 66.0813L82.3929 64.2052L81.6493 66.0422L86.284 67.9182L90.9187 69.7943L91.6622 67.9574L87.0275 66.0813ZM86.284 67.9182L81.6493 66.0422L80.9057 67.8791L85.5404 69.7552L90.1751 71.6313L90.9187 69.7943L86.284 67.9182ZM85.5404 69.7552L80.9057 67.8791C80.5269 68.8149 80.0828 69.6623 79.5786 70.4307L83.7589 73.1738L87.9392 75.917C88.8189 74.5764 89.5624 73.1447 90.1751 71.6313L85.5404 69.7552ZM83.7589 73.1738L79.5786 70.4307L78.5406 72.0124L82.7209 74.7556L86.9013 77.4987L87.9392 75.917L83.7589 73.1738ZM82.7209 74.7556L78.5406 72.0124L77.5027 73.5941L81.683 76.3373L85.8633 79.0804L86.9013 77.4987L82.7209 74.7556ZM81.683 76.3373L77.5027 73.5941C77.097 74.2123 76.6081 74.7528 76.0209 75.2275L79.1637 79.1162L82.3066 83.005C83.6945 81.8833 84.8851 80.5712 85.8633 79.0804L81.683 76.3373ZM79.1637 79.1162L76.0209 75.2275L74.5395 76.4247L77.6824 80.3134L80.8252 84.2022L82.3066 83.005L79.1637 79.1162ZM77.6824 80.3134L74.5395 76.4247L73.0581 77.6219L76.201 81.5107L79.3439 85.3994L80.8252 84.2022L77.6824 80.3134ZM76.201 81.5107L73.0581 77.6219C71.6723 78.742 70.4824 80.0512 69.5033 81.5383L73.6795 84.2877L77.8557 87.0372C78.2635 86.4178 78.7546 85.8757 79.3439 85.3994L76.201 81.5107ZM73.6795 84.2877L69.5033 81.5383L68.4632 83.1181L72.6394 85.8676L76.8156 88.617L77.8557 87.0372L73.6795 84.2877ZM72.6394 85.8676L68.4632 83.1181L67.4231 84.698L71.5993 87.4474L75.7755 90.1968L76.8156 88.617L72.6394 85.8676ZM71.5993 87.4474L67.4231 84.698C67.2062 85.0275 67.0223 85.1532 66.8552 85.2304L68.9515 89.7697L71.0477 94.3091C73.0244 93.3963 74.6057 91.9737 75.7755 90.1968L71.5993 87.4474ZM68.9515 89.7697L66.8552 85.2304L65.2474 85.9728L67.3437 90.5122L69.4399 95.0515L71.0477 94.3091L68.9515 89.7697ZM67.3437 90.5122L65.2474 85.9728L63.6396 86.7153L65.7359 91.2546L67.8321 95.794L69.4399 95.0515L67.3437 90.5122ZM65.7359 91.2546L63.6396 86.7153C63.4017 86.8252 63.109 86.8966 62.6572 86.8596L62.2482 91.8428L61.8391 96.826C63.8939 96.9947 65.9263 96.6741 67.8321 95.794L65.7359 91.2546ZM62.2482 91.8428L62.6572 86.8596L60.7773 86.7052L60.3682 91.6885L59.9592 96.6717L61.8391 96.826L62.2482 91.8428ZM60.3682 91.6885L60.7773 86.7052L58.8974 86.5509L58.4883 91.5342L58.0793 96.5174L59.9592 96.6717L60.3682 91.6885ZM58.4883 91.5342L58.8974 86.5509C58.412 86.5111 57.9772 86.3736 57.5389 86.1119L54.9755 90.4048L52.4121 94.6977C54.151 95.736 56.058 96.3515 58.0793 96.5174L58.4883 91.5342ZM54.9755 90.4048L57.5389 86.1119L55.906 85.1369L53.3426 89.4298L50.7792 93.7227L52.4121 94.6977L54.9755 90.4048ZM53.3426 89.4298L55.906 85.1369L54.2732 84.1618L51.7097 88.4547L49.1463 92.7476L50.7792 93.7227L53.3426 89.4298ZM51.7097 88.4547L54.2732 84.1618C53.4124 83.6479 52.6053 83.0735 51.8492 82.4382L48.6328 86.2663L45.4163 90.0945C46.5857 91.077 47.8299 91.9615 49.1463 92.7476L51.7097 88.4547ZM48.6328 86.2663L51.8492 82.4382L50.405 81.2248L47.1886 85.053L43.9722 88.8811L45.4163 90.0945L48.6328 86.2663ZM47.1886 85.053L50.405 81.2248L48.9609 80.0115L45.7445 83.8397L42.5281 87.6678L43.9722 88.8811L47.1886 85.053ZM45.7445 83.8397L48.9609 80.0115C48.3259 79.478 47.7747 78.8783 47.2994 78.2053L43.2152 81.0896L39.1309 83.9739C40.1027 85.3498 41.2377 86.5836 42.5281 87.6678L45.7445 83.8397ZM43.2152 81.0896L47.2994 78.2053L46.2141 76.6686L42.1299 79.5529L38.0457 82.4372L39.1309 83.9739L43.2152 81.0896ZM42.1299 79.5529L46.2141 76.6686L45.1289 75.1318L41.0447 78.0161L36.9605 80.9004L38.0457 82.4372L42.1299 79.5529ZM41.0447 78.0161L45.1289 75.1318C44.6334 74.4302 44.2483 73.711 43.9608 72.9702L39.2996 74.7795L34.6384 76.5887C35.2306 78.1145 36.009 79.5531 36.9605 80.9004L41.0447 78.0161ZM39.2996 74.7795L43.9608 72.9702L43.3009 71.2703L38.6397 73.0795L33.9786 74.8888L34.6384 76.5887L39.2996 74.7795ZM38.6397 73.0795L43.3009 71.2703L42.6411 69.5703L37.9799 71.3796L33.3187 73.1889L33.9786 74.8888L38.6397 73.0795ZM37.9799 71.3796L42.6411 69.5703C41.9055 67.6754 40.7451 66.0364 39.302 64.6416L35.8272 68.2368L32.3524 71.8321C32.8997 72.3611 33.1745 72.8172 33.3187 73.1889L37.9799 71.3796ZM35.8272 68.2368L39.302 64.6416L37.8091 63.1987L34.3343 66.794L30.8595 70.3892L32.3524 71.8321L35.8272 68.2368ZM34.3343 66.794L37.8091 63.1987L36.3162 61.7559L32.8415 65.3511L29.3667 68.9464L30.8595 70.3892L34.3343 66.794ZM32.8415 65.3511L36.3162 61.7559C36.321 61.7605 37.1199 62.5249 37.1028 63.9925C37.0853 65.4966 36.2327 66.2742 36.1722 66.3272L32.8739 62.5695L29.5755 58.8117C28.4982 59.7573 27.1318 61.4447 27.1035 63.876C27.0756 66.2709 28.3666 67.9799 29.3667 68.9464L32.8415 65.3511ZM32.8739 62.5695L36.1722 66.3272L37.6975 64.9884L34.3991 61.2307L31.1008 57.4729L29.5755 58.8117L32.8739 62.5695ZM34.3991 61.2307L37.6975 64.9884L39.2228 63.6496L35.9244 59.8919L32.626 56.1341L31.1008 57.4729L34.3991 61.2307ZM35.9244 59.8919L39.2228 63.6496C40.3045 62.7001 41.3293 61.7508 42.2956 60.8015L38.7915 57.2348L35.2874 53.6681C34.4646 54.4765 33.578 55.2985 32.626 56.1341L35.9244 59.8919ZM38.7915 57.2348L42.2956 60.8015L43.6374 59.4833L40.1333 55.9166L36.6292 52.3499L35.2874 53.6681L38.7915 57.2348ZM40.1333 55.9166L43.6374 59.4833L44.9792 58.165L41.4751 54.5983L37.971 51.0316L36.6292 52.3499L40.1333 55.9166ZM41.4751 54.5983L44.9792 58.165C45.9796 57.1821 46.9335 56.1575 47.8403 55.0915L44.0318 51.8518L40.2233 48.6122C39.5102 49.4505 38.7595 50.2569 37.971 51.0316L41.4751 54.5983ZM44.0318 51.8518L47.8403 55.0915L49.0552 53.6633L45.2467 50.4236L41.4382 47.1839L40.2233 48.6122L44.0318 51.8518ZM45.2467 50.4236L49.0552 53.6633L50.2701 52.235L46.4617 48.9953L42.6532 45.7557L41.4382 47.1839L45.2467 50.4236ZM46.4617 48.9953L50.2701 52.235C51.0862 51.2756 51.8996 50.3139 52.7103 49.3498L48.8834 46.1319L45.0566 42.9139C44.2581 43.8635 43.457 44.8107 42.6532 45.7557L46.4617 48.9953ZM48.8834 46.1319L52.7103 49.3498L53.9172 47.9146L50.0903 44.6966L46.2634 41.4787L45.0566 42.9139L48.8834 46.1319ZM50.0903 44.6966L53.9172 47.9146L55.124 46.4793L51.2972 43.2614L47.4703 40.0435L46.2634 41.4787L50.0903 44.6966ZM51.2972 43.2614L55.124 46.4793C55.8922 45.5658 56.6756 44.6656 57.4744 43.7787L53.759 40.4326L50.0437 37.0866C49.1691 38.0577 48.3113 39.0433 47.4703 40.0435L51.2972 43.2614ZM53.759 40.4326L57.4744 43.7787L58.7294 42.3852L55.014 39.0391L51.2987 35.6931L50.0437 37.0866L53.759 40.4326ZM55.014 39.0391L58.7294 42.3852L59.9844 40.9917L56.269 37.6456L52.5537 34.2996L51.2987 35.6931L55.014 39.0391ZM56.269 37.6456L59.9844 40.9917C61.5734 39.2273 62.4526 37.0961 62.8099 34.8626L57.8727 34.0728L52.9355 33.2829C52.8279 33.9552 52.638 34.2059 52.5537 34.2996L56.269 37.6456ZM57.8727 34.0728L62.8099 34.8626L63.1585 32.6833L58.2213 31.8934L53.2841 31.1035L52.9355 33.2829L57.8727 34.0728ZM58.2213 31.8934L63.1585 32.6833L63.5072 30.5039L58.57 29.714L53.6328 28.9242L53.2841 31.1035L58.2213 31.8934ZM58.57 29.714L63.5072 30.5039C63.5459 30.2619 63.5945 30.1824 63.5863 30.1973C63.5829 30.2034 63.5722 30.2211 63.5533 30.2432C63.5345 30.2655 63.5175 30.2805 63.5088 30.2873L60.4204 26.3552L57.3321 22.423C55.1876 24.1073 54.0309 26.4356 53.6328 28.9242L58.57 29.714ZM60.4204 26.3552L63.5088 30.2873L65.0106 29.1078L61.9222 25.1756L58.8339 21.2435L57.3321 22.423L60.4204 26.3552ZM61.9222 25.1756L65.0106 29.1078L66.5124 27.9283L63.424 23.9961L60.3356 20.0639L58.8339 21.2435L61.9222 25.1756ZM63.424 23.9961L66.5124 27.9283C67.9469 26.8016 69.1673 25.4651 70.1547 23.9327L65.9517 21.2245L61.7487 18.5162C61.3682 19.1067 60.9035 19.6179 60.3356 20.0639L63.424 23.9961ZM65.9517 21.2245L70.1547 23.9327L71.1806 22.3406L66.9776 19.6323L62.7746 16.9241L61.7487 18.5162L65.9517 21.2245ZM66.9776 19.6323L71.1806 22.3406L72.2065 20.7484L68.0035 18.0402L63.8005 15.3319L62.7746 16.9241L66.9776 19.6323ZM68.0035 18.0402L72.2065 20.7484C72.3044 20.5967 72.4736 20.4018 72.9308 20.2028L70.9348 15.6185L68.9388 11.0341C66.8555 11.9412 65.0706 13.3609 63.8005 15.3319L68.0035 18.0402ZM70.9348 15.6185L72.9308 20.2028L74.8362 19.3732L72.8402 14.7889L70.8442 10.2045L68.9388 11.0341L70.9348 15.6185ZM72.8402 14.7889L74.8362 19.3732L76.7415 18.5436L74.7455 13.9593L72.7495 9.37495L70.8442 10.2045L72.8402 14.7889ZM74.7455 13.9593L76.7415 18.5436C78.4095 17.8174 79.9471 16.891 81.3173 15.7434L78.1067 11.9103L74.8962 8.07724C74.3252 8.55544 73.6221 8.99504 72.7495 9.37495L74.7455 13.9593ZM78.1067 11.9103L81.3173 15.7434L82.7731 14.524L79.5625 10.6909L76.352 6.85786L74.8962 8.07724L78.1067 11.9103ZM79.5625 10.6909L82.7731 14.524L84.2289 13.3046L81.0184 9.47154L77.8078 5.63847L76.352 6.85786L79.5625 10.6909ZM81.0184 9.47154L84.2289 13.3046C85.1541 12.5297 85.9386 11.9034 86.5897 11.4145L83.5873 7.41627L80.5849 3.41805C79.7519 4.04364 78.8237 4.78755 77.8078 5.63847L81.0184 9.47154ZM83.5873 7.41627L86.5897 11.4145L87.7028 10.5786L84.7005 6.58038L81.6981 2.58216L80.5849 3.41805L83.5873 7.41627ZM84.7005 6.58038L87.7028 10.5786L88.816 9.7427L85.8136 5.74449L82.8112 1.74627L81.6981 2.58216L84.7005 6.58038ZM85.8136 5.74449L88.816 9.7427C88.5466 9.94501 88.2541 10.0588 88.0152 10.104C87.8005 10.1447 87.7231 10.1129 87.8463 10.1337L88.6761 5.203L89.5059 0.272333C87.3807 -0.0853269 84.9309 0.154579 82.8112 1.74627L85.8136 5.74449ZM88.6761 5.203L87.8463 10.1337L89.5957 10.4281L90.4255 5.4974L91.2553 0.566736L89.5059 0.272333L88.6761 5.203ZM90.4255 5.4974L89.5957 10.4281L91.3451 10.7225L92.1749 5.7918L93.0047 0.86114L91.2553 0.566736L90.4255 5.4974ZM92.1749 5.7918L91.3451 10.7225C91.3719 10.727 91.3859 10.7314 91.3909 10.7332C91.3957 10.7348 91.3998 10.7365 91.4057 10.7398C91.4128 10.7437 91.4693 10.7748 91.5694 10.8813L95.2126 7.45682L98.8558 4.03231C97.297 2.37401 95.3155 1.25003 93.0047 0.86114L92.1749 5.7918ZM95.2126 7.45682L91.5694 10.8813L92.8578 12.252L96.501 8.82744L100.144 5.40293L98.8558 4.03231L95.2126 7.45682ZM96.501 8.82744L92.8578 12.252L94.1461 13.6226L97.7893 10.1981L101.432 6.77355L100.144 5.40293L96.501 8.82744ZM97.7893 10.1981L94.1461 13.6226C95.6011 15.1705 97.4363 16.3277 99.6305 16.8083L100.7 11.924L101.77 7.03977C101.76 7.03767 101.746 7.03461 101.711 7.01404C101.672 6.99076 101.576 6.92616 101.432 6.77355L97.7893 10.1981ZM100.7 11.924L99.6305 16.8083L101.253 17.1636L102.323 12.2793L103.392 7.39511L101.77 7.03977L100.7 11.924ZM102.323 12.2793L101.253 17.1636L102.876 17.5189L103.945 12.6347L105.015 7.75044L103.392 7.39511L102.323 12.2793ZM103.945 12.6347L102.876 17.5189C102.905 17.5255 103.057 17.5526 103.352 17.8481L106.891 14.3162L110.43 10.7842C108.961 9.3115 107.148 8.21769 105.015 7.75044L103.945 12.6347ZM106.891 14.3162L103.352 17.8481L104.676 19.1743L108.215 15.6423L111.754 12.1104L110.43 10.7842L106.891 14.3162ZM68.2826 90.9189L67.5048 85.9797L63.9932 86.5328L64.771 91.4719L65.5489 96.411L69.0605 95.858L68.2826 90.9189ZM64.771 91.4719L63.9932 86.5328C61.8167 86.8756 60.6048 86.8673 60.0794 86.7871L59.3254 91.7299L58.5714 96.6728C60.6247 96.986 63.0431 96.8057 65.5489 96.411L64.771 91.4719ZM59.3254 91.7299L60.0794 86.7871L58.1455 86.4921L57.3914 91.4349L56.6374 96.3777L58.5714 96.6728L59.3254 91.7299ZM57.3914 91.4349L58.1455 86.4921L56.2115 86.1971L55.4575 91.1399L54.7034 96.0827L56.6374 96.3777L57.3914 91.4349ZM55.4575 91.1399L56.2115 86.1971C56.1816 86.1925 56.178 86.1894 56.1937 86.1949C56.201 86.1975 56.2111 86.2014 56.2232 86.2071C56.2354 86.2128 56.2478 86.2193 56.26 86.2266C56.2722 86.2338 56.2825 86.2408 56.2906 86.2469C56.2987 86.2529 56.3034 86.2569 56.3045 86.2579C56.3074 86.2605 56.2912 86.2466 56.2597 86.2057L52.3006 89.2595L48.3416 92.3134C49.9219 94.3622 52.1098 95.687 54.7034 96.0827L55.4575 91.1399ZM52.3006 89.2595L56.2597 86.2057L55.0368 84.6203L51.0777 87.6742L47.1187 90.728L48.3416 92.3134L52.3006 89.2595ZM51.0777 87.6742L55.0368 84.6203L53.8139 83.035L49.8549 86.0888L45.8958 89.1426L47.1187 90.728L51.0777 87.6742ZM49.8549 86.0888L53.8139 83.035C52.8951 81.8439 51.5107 80.2859 49.6217 79.4996L47.7002 84.1156L45.7788 88.7316C45.5607 88.6409 45.4209 88.552 45.3611 88.5111C45.2999 88.4692 45.2891 88.4546 45.3279 88.4902C45.3654 88.5246 45.4345 88.5921 45.5347 88.7041C45.6341 88.8153 45.7546 88.9595 45.8958 89.1426L49.8549 86.0888ZM47.7002 84.1156L49.6217 79.4996L48.69 79.1117L46.7685 83.7278L44.847 88.3438L45.7788 88.7316L47.7002 84.1156ZM46.7685 83.7278L48.69 79.1117L46.8265 78.336L44.905 82.952L42.9835 87.5681L44.847 88.3438L46.7685 83.7278ZM44.905 82.952L49.3615 80.685L49.3162 80.5959L44.8597 82.8629L40.4032 85.13L40.4485 85.2191L44.905 82.952ZM44.8597 82.8629L47.7481 78.7816L44.6486 76.5881L41.7602 80.6694L38.8718 84.7507L41.9713 86.9442L44.8597 82.8629ZM41.7602 80.6694L44.6486 76.5881C42.6977 75.2074 41.9974 74.3979 41.8583 74.1781L37.633 76.8515L33.4077 79.5248C34.639 81.4709 36.6902 83.2067 38.8718 84.7507L41.7602 80.6694ZM37.633 76.8515L41.8583 74.1781L40.8306 72.5537L36.6053 75.2271L32.38 77.9004L33.4077 79.5248L37.633 76.8515ZM36.6053 75.2271L40.8306 72.5537L39.8028 70.9293L35.5775 73.6027L31.3522 76.276L32.38 77.9004L36.6053 75.2271ZM35.5775 73.6027L39.8028 70.9293C39.5332 70.5031 39.4072 70.1075 39.371 69.6873L34.3894 70.1163L29.4079 70.5452C29.5854 72.6077 30.2515 74.5364 31.3522 76.276L35.5775 73.6027ZM34.3894 70.1163L39.371 69.6873L39.2107 67.8253L34.2291 68.2543L29.2475 68.6832L29.4079 70.5452L34.3894 70.1163ZM34.2291 68.2543L39.2107 67.8253L39.0503 65.9633L34.0688 66.3923L29.0872 66.8212L29.2475 68.6832L34.2291 68.2543ZM34.0688 66.3923L39.0503 65.9633C38.9442 64.7307 38.8794 63.8725 38.8502 63.3522L33.858 63.6324L28.8659 63.9126C28.9039 64.5895 28.9795 65.5711 29.0872 66.8212L34.0688 66.3923ZM33.858 63.6324L38.8502 63.3522L38.7998 62.4543L33.8076 62.7345L28.8155 63.0148L28.8659 63.9126L33.858 63.6324ZM33.8076 62.7345L38.805 62.5721L38.7495 60.8655L33.7522 61.0279L28.7548 61.1904L28.8103 62.897L33.8076 62.7345ZM33.7522 61.0279L38.2087 58.7609L38.1633 58.6718L33.7068 60.9388L29.2503 63.2059L29.2956 63.295L33.7522 61.0279ZM54.9333 77.1122L50.6792 79.7393L51.7117 81.4113L55.9659 78.7841L60.22 76.157L59.1875 74.485L54.9333 77.1122ZM55.9659 78.7841L51.7117 81.4113C51.6194 81.2618 51.051 80.2273 51.5034 78.7861C51.7093 78.13 52.0526 77.668 52.3286 77.3887C52.5877 77.1267 52.7898 77.0208 52.8044 77.013L55.1329 81.4378L57.4613 85.8625C58.6591 85.2322 60.3467 84.0036 61.0444 81.781C61.7744 79.4552 61.0007 77.4211 60.22 76.157L55.9659 78.7841ZM55.1329 81.4378L52.8044 77.013L50.9389 77.9947L53.2674 82.4195L55.5958 86.8442L57.4613 85.8625L55.1329 81.4378ZM53.2674 82.4195L50.9389 77.9947L49.0734 78.9764L51.4019 83.4012L53.7303 87.8259L55.5958 86.8442L53.2674 82.4195ZM51.4019 83.4012L49.0734 78.9764C46.4793 80.3415 44.7923 82.6368 44.2041 85.4692L49.0996 86.4859L53.9952 87.5025C54.0036 87.4618 54.0067 87.4657 53.9913 87.5011C53.9752 87.5381 53.9461 87.5928 53.9006 87.6538C53.8549 87.7149 53.8071 87.7632 53.7669 87.7968C53.728 87.8294 53.7105 87.8363 53.7303 87.8259L51.4019 83.4012ZM49.0996 86.4859L44.2041 85.4692L43.7673 87.5722L48.6629 88.5889L53.5585 89.6055L53.9952 87.5025L49.0996 86.4859ZM48.6629 88.5889L43.7673 87.5722L43.3306 89.6752L48.2262 90.6919L53.1217 91.7085L53.5585 89.6055L48.6629 88.5889ZM48.2262 90.6919L43.3306 89.6752C43.1588 90.5028 42.8939 91.066 42.6144 91.4641L46.7063 94.3374L50.7982 97.2107C51.9629 95.5521 52.7113 93.685 53.1217 91.7085L48.2262 90.6919ZM46.7063 94.3374L42.6144 91.4641L41.5312 93.0066L45.6232 95.8799L49.7151 98.7533L50.7982 97.2107L46.7063 94.3374ZM45.6232 95.8799L41.5312 93.0066L40.4481 94.5491L44.54 97.4224L48.632 100.296L49.7151 98.7533L45.6232 95.8799ZM44.54 97.4224L40.4481 94.5491C40.3363 94.7083 40.132 94.9246 39.6162 95.1362L41.514 99.762L43.4118 104.388C45.4865 103.537 47.2995 102.193 48.632 100.296L44.54 97.4224ZM41.514 99.762L39.6162 95.1362L37.6734 95.9332L39.5711 100.559L41.4689 105.185L43.4118 104.388L41.514 99.762ZM39.5711 100.559L37.6734 95.9332L35.7305 96.7303L37.6283 101.356L39.526 105.982L41.4689 105.185L39.5711 100.559ZM37.6283 101.356L35.7305 96.7303C34.0909 97.4029 32.5632 98.243 31.1727 99.2671L34.1378 103.293L37.1029 107.319C37.7759 106.823 38.5751 106.372 39.526 105.982L37.6283 101.356ZM34.1378 103.293L31.1727 99.2671L29.6251 100.407L32.5902 104.433L35.5553 108.459L37.1029 107.319L34.1378 103.293ZM32.5902 104.433L29.6251 100.407L28.0775 101.547L31.0426 105.573L34.0077 109.599L35.5553 108.459L32.5902 104.433ZM31.0426 105.573L28.0775 101.547C26.6766 102.578 25.4402 103.783 24.3851 105.158L28.3513 108.202L32.3174 111.247C32.7874 110.635 33.3452 110.086 34.0077 109.599L31.0426 105.573ZM28.3513 108.202L24.3851 105.158L23.2414 106.648L27.2075 109.692L31.1737 112.737L32.3174 111.247L28.3513 108.202ZM27.2075 109.692L23.2414 106.648L22.0976 108.138L26.0637 111.182L30.0299 114.227L31.1737 112.737L27.2075 109.692ZM26.0637 111.182L22.0976 108.138C20.8728 109.733 20.0471 111.548 19.5585 113.489L24.4074 114.709L29.2563 115.929C29.4511 115.155 29.7297 114.618 30.0299 114.227L26.0637 111.182ZM24.4074 114.709L19.5585 113.489L19.0459 115.527L23.8948 116.747L28.7437 117.967L29.2563 115.929L24.4074 114.709ZM23.8948 116.747L19.0459 115.527L18.5333 117.564L23.3822 118.784L28.2311 120.004L28.7437 117.967L23.8948 116.747ZM23.3822 118.784L18.5333 117.564C18.5072 117.668 18.5326 117.491 18.7547 117.228C18.9997 116.939 19.3082 116.753 19.5556 116.668L21.1693 121.401L22.783 126.133C25.813 125.1 27.5574 122.681 28.2311 120.004L23.3822 118.784ZM21.1693 121.401L19.5556 116.668L17.8553 117.248L19.469 121.981L21.0826 126.713L22.783 126.133L21.1693 121.401ZM19.469 121.981L17.8553 117.248L16.155 117.828L17.7687 122.56L19.3823 127.293L21.0826 126.713L19.469 121.981ZM17.7687 122.56L16.155 117.828C16.3893 117.748 17.1129 117.581 18.015 117.921C18.8972 118.253 19.2973 118.825 19.3815 118.963L15.1079 121.559L10.8343 124.154C11.5588 125.347 12.7225 126.613 14.4917 127.279C16.2806 127.953 18.0144 127.759 19.3823 127.293L17.7687 122.56ZM15.1079 121.559L19.3815 118.963L18.421 117.382L14.1474 119.977L9.87383 122.573L10.8343 124.154L15.1079 121.559ZM14.1474 119.977L18.421 117.382L17.4606 115.8L13.187 118.396L8.91337 120.991L9.87383 122.573L14.1474 119.977ZM13.187 118.396L17.4606 115.8C17.3471 115.613 17.264 115.465 17.2053 115.352C17.1455 115.237 17.1208 115.178 17.1171 115.168C17.1114 115.154 17.1455 115.235 17.1816 115.394C17.2157 115.544 17.2759 115.869 17.2552 116.314L12.2606 116.081L7.26598 115.849C7.20595 117.14 7.57376 118.236 7.8332 118.885C8.12605 119.616 8.5118 120.33 8.91337 120.991L13.187 118.396ZM12.2606 116.081L17.2552 116.314L17.2893 115.581L12.2947 115.349L7.30005 115.116L7.26598 115.849L12.2606 116.081ZM12.2947 115.349L17.2893 115.581L17.3233 114.848L12.3287 114.616L7.33413 114.383L7.30005 115.116L12.2947 115.349ZM12.3287 114.616L17.3233 114.848C17.3151 115.025 17.2958 115.167 17.2788 115.266C17.2617 115.365 17.2438 115.439 17.2324 115.481C17.211 115.562 17.201 115.576 17.227 115.512C17.2513 115.451 17.2963 115.348 17.3712 115.196C17.4452 115.045 17.5411 114.862 17.6628 114.644L13.2953 112.21L8.9278 109.776C8.55783 110.439 8.21493 111.119 7.94779 111.784C7.71233 112.37 7.38421 113.306 7.33413 114.383L12.3287 114.616ZM13.2953 112.21L17.6628 114.644L18.5953 112.971L14.2278 110.536L9.86029 108.102L8.9278 109.776L13.2953 112.21ZM14.2278 110.536L18.5953 112.971L19.5278 111.297L15.1603 108.863L10.7928 106.429L9.86029 108.102L14.2278 110.536ZM15.1603 108.863L19.5278 111.297C19.9408 110.556 20.4272 109.903 20.9885 109.325L17.4008 105.843L13.8131 102.36C12.6303 103.579 11.6231 104.939 10.7928 106.429L15.1603 108.863ZM17.4008 105.843L20.9885 109.325L22.2965 107.978L18.7088 104.495L15.1211 101.013L13.8131 102.36L17.4008 105.843ZM18.7088 104.495L22.2965 107.978L23.6046 106.63L20.0168 103.148L16.4291 99.6651L15.1211 101.013L18.7088 104.495ZM20.0168 103.148L23.6046 106.63C24.8826 105.313 25.907 103.804 26.6815 102.135L22.1461 100.03L17.6107 97.9257C17.2902 98.6162 16.8951 99.185 16.4291 99.6651L20.0168 103.148ZM22.1461 100.03L26.6815 102.135L27.5027 100.366L22.9673 98.2609L18.4319 96.1561L17.6107 97.9257L22.1461 100.03ZM22.9673 98.2609L27.5027 100.366L28.324 98.5961L23.7886 96.4913L19.2532 94.3865L18.4319 96.1561L22.9673 98.2609ZM23.7886 96.4913L28.324 98.5961C28.7467 97.6852 29.2314 96.8514 29.7752 96.0878L25.7024 93.1874L21.6296 90.287C20.7167 91.569 19.9255 92.9378 19.2532 94.3865L23.7886 96.4913ZM25.7024 93.1874L29.7752 96.0878L30.8679 94.5535L26.7951 91.6531L22.7223 88.7527L21.6296 90.287L25.7024 93.1874ZM26.7951 91.6531L30.8679 94.5535L31.9605 93.0192L27.8877 90.1188L23.8149 87.2184L22.7223 88.7527L26.7951 91.6531ZM27.8877 90.1188L31.9605 93.0192C32.0919 92.8347 32.3202 92.6041 32.8459 92.3831L30.9077 87.774L28.9696 83.1649C26.9254 84.0246 25.1403 85.3572 23.8149 87.2184L27.8877 90.1188ZM30.9077 87.774L32.8459 92.3831L34.7733 91.5726L32.8351 86.9636L30.897 82.3545L28.9696 83.1649L30.9077 87.774ZM32.8351 86.9636L34.7733 91.5726L36.7007 90.7622L34.7625 86.1531L32.8244 81.544L30.897 82.3545L32.8351 86.9636ZM34.7625 86.1531L36.7007 90.7622C39.0888 89.7579 40.9892 87.9948 42.059 85.5319L37.473 83.5399L32.8869 81.5479C32.8791 81.5658 32.8788 81.5625 32.8901 81.5461C32.8953 81.5384 32.902 81.5295 32.91 81.5201C32.9179 81.5107 32.926 81.5023 32.9334 81.495C32.9495 81.4796 32.9561 81.4766 32.9447 81.4839C32.9326 81.4917 32.8957 81.514 32.8244 81.544L34.7625 86.1531ZM37.473 83.5399L42.059 85.5319L42.842 83.7291L38.256 81.7371L33.6699 79.7451L32.8869 81.5479L37.473 83.5399ZM38.256 81.7371L42.842 83.7291L43.6251 81.9264L39.039 79.9344L34.453 77.9424L33.6699 79.7451L38.256 81.7371ZM39.039 79.9344L43.6251 81.9264C43.9665 81.1403 44.3819 80.4705 44.8632 79.8933L41.023 76.6913L37.1828 73.4893C36.0628 74.8325 35.1556 76.3248 34.453 77.9424L39.039 79.9344ZM41.023 76.6913L44.8632 79.8933L46.0642 78.4529L42.224 75.251L38.3838 72.049L37.1828 73.4893L41.023 76.6913ZM42.224 75.251L46.0642 78.4529L47.2652 77.0126L43.425 73.8106L39.5847 70.6086L38.3838 72.049L42.224 75.251ZM43.425 73.8106L47.2652 77.0126C47.2658 77.0119 47.2271 77.0585 47.1408 77.1261C47.0523 77.1955 46.9236 77.2792 46.7548 77.3532C46.3835 77.516 46.0277 77.5425 45.7951 77.5184L46.3111 72.5451L46.8272 67.5718C43.8493 67.2628 41.3178 68.5301 39.5847 70.6086L43.425 73.8106ZM46.3111 72.5451L45.7951 77.5184L47.4803 77.6933L47.9963 72.72L48.5123 67.7467L46.8272 67.5718L46.3111 72.5451ZM47.9963 72.72L47.4803 77.6933L49.1654 77.8681L49.6815 72.8948L50.1975 67.9215L48.5123 67.7467L47.9963 72.72ZM49.6815 72.8948L49.1654 77.8681C49.6769 77.9212 50.0103 77.9665 50.2031 77.9992C50.2998 78.0156 50.312 78.0207 50.2665 78.0094C50.2415 78.0032 50.1777 77.9867 50.0868 77.9573C50.0032 77.9302 49.8396 77.8739 49.6332 77.7778L51.7421 73.2443L53.851 68.7108C53.0435 68.3352 52.1905 68.1935 51.8753 68.14C51.3813 68.0562 50.8095 67.985 50.1975 67.9215L49.6815 72.8948ZM51.7421 73.2443L49.6332 77.7778L50.0086 77.9525L52.1175 73.419L54.2264 68.8855L53.851 68.7108L51.7421 73.2443ZM52.1175 73.419L50.0086 77.9525L50.384 78.1271L52.4929 73.5936L54.6018 69.0601L54.2264 68.8855L52.1175 73.419ZM52.4929 73.5936L50.384 78.1271C50.1575 78.0217 49.9736 77.9141 49.8352 77.825C49.6954 77.735 49.5819 77.6508 49.4958 77.5827C49.3286 77.4505 49.214 77.3386 49.1561 77.2798C49.0459 77.1676 49.0092 77.1121 49.0565 77.1741C49.0944 77.2239 49.1645 77.3205 49.2701 77.4783C49.3737 77.6331 49.4988 77.8279 49.6466 78.0673L53.9008 75.4402L58.155 72.8131C57.7749 72.1974 57.3872 71.6074 57.0087 71.111C56.8213 70.8652 56.5774 70.5644 56.2872 70.2692C56.0743 70.0526 55.4915 69.474 54.6018 69.0601L52.4929 73.5936ZM53.9008 75.4402L49.6466 78.0673L50.6792 79.7393L54.9333 77.1122L59.1875 74.485L58.155 72.8131L53.9008 75.4402Z" fill="white"/>
<path d="M105.568 12.99C115.116 21.2688 120.129 31.1244 116.766 35.0033L68.2581 90.9471L68.2576 90.9466C64.8682 94.78 54.4297 91.2107 44.905 82.9521C35.3803 74.6934 30.3683 64.8658 33.6828 60.9675L33.6823 60.967L82.1901 5.02321C85.5534 1.1444 96.0199 4.71126 105.568 12.99Z" fill="url(#paint0_linear_152_140)"/>
<path d="M105.568 12.99C115.116 21.2688 120.129 31.1244 116.766 35.0033L68.2581 90.9471L68.2576 90.9466C64.8682 94.78 54.4297 91.2107 44.905 82.9521C35.3803 74.6934 30.3683 64.8658 33.6828 60.9675L33.6823 60.967L82.1901 5.02321C85.5534 1.1444 96.0199 4.71126 105.568 12.99Z" fill="url(#pattern1_152_140)" fill-opacity="0.35" style="mix-blend-mode:lighten"/>
<ellipse cx="50.9947" cy="75.9288" rx="22.8817" ry="9.2957" transform="rotate(40.9279 50.9947 75.9288)" fill="#EBF0F5"/>
<ellipse cx="50.9947" cy="75.9288" rx="22.8817" ry="9.2957" transform="rotate(40.9279 50.9947 75.9288)" fill="url(#paint1_radial_152_140)" fill-opacity="0.68"/>
<path d="M52.8684 73.7678C55.7028 76.2255 56.978 79.3971 55.7168 80.852L18.8861 123.329L8.62145 114.428L45.4522 71.9517C46.7137 70.4971 50.034 71.3102 52.8684 73.7678Z" fill="#D5E4F3"/>
<ellipse cx="13.8653" cy="118.856" rx="6.79301" ry="2.32771" transform="rotate(40.9279 13.8653 118.856)" fill="#8697A7"/>
<path d="M17.9046 122.428C17.3214 123.101 15.0345 122.073 12.7967 120.133C10.5589 118.192 9.21765 116.074 9.80089 115.401C10.3841 114.729 12.671 115.756 14.9088 117.697C17.1466 119.637 18.4878 121.755 17.9046 122.428Z" fill="#1C3F5E"/>
<mask id="mask0_152_140" style="mask-type:alpha" maskUnits="userSpaceOnUse" x="8" y="71" width="49" height="53">
<path d="M52.8684 73.7678C55.7028 76.2255 56.978 79.3971 55.7168 80.852L18.8861 123.329L8.62145 114.428L45.4522 71.9517C46.7137 70.4971 50.034 71.3102 52.8684 73.7678Z" fill="#D5E4F3"/>
</mask>
<g mask="url(#mask0_152_140)">
<g opacity="0.04">
<path d="M23.2646 118.659C24.1068 117.688 22.4917 114.908 19.6572 112.45C16.8227 109.992 13.8421 108.787 12.9999 109.759" stroke="black" stroke-linecap="round" stroke-linejoin="round"/>
<path d="M54.2646 82.659C55.1068 81.6877 53.4917 78.9079 50.6572 76.4502C47.8227 73.9924 44.8421 72.7874 43.9999 73.7587" stroke="black" stroke-linecap="round" stroke-linejoin="round"/>
<path d="M40.2646 98.659C41.1068 97.6877 39.4917 94.9079 36.6572 92.4502C33.8227 89.9924 30.8421 88.7874 29.9999 89.7587" stroke="black" stroke-linecap="round" stroke-linejoin="round"/>
<path d="M47.2646 90.659C48.1068 89.6877 46.4917 86.9079 43.6572 84.4502C40.8227 81.9924 37.8421 80.7874 36.9999 81.7587" stroke="black" stroke-linecap="round" stroke-linejoin="round"/>
<path d="M26.2646 114.659C27.1068 113.688 25.4917 110.908 22.6572 108.45C19.8227 105.992 16.8421 104.787 15.9999 105.759" stroke="black" stroke-linecap="round" stroke-linejoin="round"/>
<path d="M29.6932 110.596C30.5353 109.624 28.9202 106.844 26.0857 104.387C23.2512 101.929 20.2706 100.724 19.4285 101.695" stroke="black" stroke-linecap="round" stroke-linejoin="round"/>
<path d="M33.2646 106.659C34.1068 105.688 32.4917 102.908 29.6572 100.45C26.8227 97.9924 23.8421 96.7874 22.9999 97.7587" stroke="black" stroke-linecap="round" stroke-linejoin="round"/>
<path d="M37.2646 102.659C38.1068 101.688 36.4917 98.9079 33.6572 96.4502C30.8227 93.9924 27.8421 92.7874 26.9999 93.7587" stroke="black" stroke-linecap="round" stroke-linejoin="round"/>
<path d="M43.8837 94.3415C44.7258 93.3702 43.1107 90.5904 40.2762 88.1327C37.4417 85.6749 34.4611 84.4699 33.619 85.4412" stroke="black" stroke-linecap="round" stroke-linejoin="round"/>
<path d="M51.2646 86.659C52.1068 85.6877 50.4917 82.9079 47.6572 80.4502C44.8227 77.9924 41.8421 76.7874 40.9999 77.7587" stroke="black" stroke-linecap="round" stroke-linejoin="round"/>
</g>
</g>
</g>
<defs>
<linearGradient id="paint0_linear_152_140" x1="57.9485" y1="32.981" x2="92.5243" y2="62.9611" gradientUnits="userSpaceOnUse">
<stop stop-color="#93AD84"/>
<stop offset="0.668269" stop-color="#D5F4C4"/>
<stop offset="0.778846" stop-color="#FFDFDF"/>
<stop offset="0.894231" stop-color="#FFD8D8"/>
<stop offset="1" stop-color="#F7CFCF"/>
</linearGradient>
<radialGradient id="paint1_radial_152_140" cx="0" cy="0" r="1" gradientUnits="userSpaceOnUse" gradientTransform="translate(49.2071 73.9625) rotate(72.2724) scale(22.8964 60.8558)">
<stop stop-color="#D2E0EB"/>
<stop offset="0.592538" stop-color="#4C6074"/>
<stop offset="0.783654" stop-color="#D2E0EB"/>
</radialGradient>
<clipPath id="clip0_152_140">
<rect width="128" height="128" fill="white"/>
</clipPath>
<pattern id="pattern0_152_140" patternUnits="userSpaceOnUse" viewBox="113.504 311.101 42.5 85" width="24.238281883299351%" height="48.476563766598701%" x="51.59" y="51.59" patternContentUnits="objectBoundingBox">
<g id="pattern0_152_140_inner">
<circle cx="77.0038" cy="317.101" r="6" fill="#D5F4C4"/>
<circle cx="99.0038" cy="317.101" r="6" fill="#D5F4C4"/>
<circle cx="77.0038" cy="339.101" r="6" fill="#D5F4C4"/>
<circle cx="99.0038" cy="339.101" r="6" fill="#F7D4D4"/>
</g>
<use xlink:href="#pattern0_152_140_inner" transform="translate(42.5 0)"/>
<use xlink:href="#pattern0_152_140_inner" transform="translate(21.25 42.5)"/>
<use xlink:href="#pattern0_152_140_inner" transform="translate(63.75 42.5)"/>
</pattern><pattern id="pattern1_152_140" patternUnits="userSpaceOnUse" viewBox="130.846 257.206 19.2 38.4" width="14.264667651445118%" height="14.09944011761535%" x="20.8417" y="44.2597" patternContentUnits="objectBoundingBox">
<g id="pattern1_152_140_inner">
<circle cx="117.646" cy="263.206" r="6" fill="#D5F4C4"/>
</g>
<use xlink:href="#pattern1_152_140_inner" transform="translate(19.2 0)"/>
<use xlink:href="#pattern1_152_140_inner" transform="translate(9.6 19.2)"/>
<use xlink:href="#pattern1_152_140_inner" transform="translate(28.8 19.2)"/>
</pattern></defs>
</svg>
