<svg width="128" height="128" viewBox="0 0 128 128" fill="none" xmlns="http://www.w3.org/2000/svg" xmlns:xlink="http://www.w3.org/1999/xlink">
<g clip-path="url(#clip0_170_165)">
<rect width="128" height="128" fill="#2E2E2E"/>
<rect width="128" height="128" fill="url(#pattern0_170_165)" fill-opacity="0.2"/>
<path d="M109.657 16.2527C118.593 25.1883 122.895 35.3749 119.265 39.0053L66.9084 91.3652C63.2554 94.9483 53.0961 90.6466 44.1816 81.7328C35.2671 72.8189 30.9652 62.6604 34.5481 59.0072L86.9037 6.64679C90.5338 3.01647 100.721 7.3172 109.657 16.2527Z" fill="#FF7DAF"/>
<path d="M52.7766 73.1373C55.4294 75.7899 56.4763 79.0441 55.115 80.4058L15.4301 120.094C15.4106 120.118 15.3908 120.143 15.3686 120.165C14.4593 121.073 11.6785 119.641 9.02597 116.989C6.38055 114.344 4.86729 111.477 5.7602 110.56L5.75537 110.555L45.508 70.7994C46.8696 69.438 50.1238 70.4847 52.7766 73.1373Z" fill="#FF7DAF"/>
<path d="M89.9812 0.516488C92.6355 0.127335 94.8963 1.24019 96.4636 2.4267C98.1131 3.67387 99.7418 4.63072 101.349 5.31978C103.692 6.32449 105.94 7.5684 108.054 9.04729C109.881 10.3252 111.075 11.1462 111.637 11.5344C112.81 12.3456 114.262 13.9089 115.662 15.502C117.183 17.2325 118.684 19.0014 120.18 20.797C122.165 23.1795 123.525 25.9235 124.182 28.9531C124.784 31.7398 124.89 34.5676 124.524 37.3579C124.121 40.4142 122.974 43.2296 121.147 45.7332C119.618 47.8279 117.91 49.7526 116.037 51.5178C114.102 53.3392 111.965 54.9455 109.626 56.3093C107.614 57.4816 105.613 58.6895 103.615 59.876C101.975 60.8499 100.515 61.9863 99.2605 63.2865C97.9807 64.6148 96.8274 66.0985 95.8468 67.7821C94.5414 70.0252 93.0829 72.1534 91.4791 74.1288C89.7949 76.2018 87.8912 78.0563 85.7586 79.6742C84.255 80.8135 82.9047 82.1248 81.7214 83.5772C80.073 85.6027 78.2186 87.4433 76.1985 89.0976C74.6618 90.3553 73.203 91.7496 71.8664 93.2929C69.3021 96.2542 65.8456 97.6849 61.943 97.3645C58.9598 97.1183 56.129 96.2866 53.504 94.8842C53.4374 94.8487 53.3837 94.7895 53.3175 94.7535C51.7492 94.3721 50.1884 93.9107 48.686 93.2491C47.7869 93.831 46.9494 94.5165 46.012 95.0561C44.3648 96.0034 42.9047 97.1461 41.6601 98.4276C40.2585 99.8717 38.9643 101.425 37.7651 103.085C36.2246 105.218 34.4569 107.174 32.5317 108.939C31.1926 110.168 30.0335 111.597 29.0178 113.193C27.6453 115.347 26.1149 117.386 24.4719 119.291C22.2251 121.891 19.1349 123.629 15.3695 123.382C12.6568 123.204 10.0494 122.352 7.59014 120.988C4.30831 119.164 2.11489 116.103 2.03546 112.095C1.9683 108.402 3.62139 105.304 6.28554 102.999C8.2489 101.302 10.3888 99.7691 12.6798 98.441C14.1127 97.6083 15.2668 96.5584 16.194 95.284C17.7036 93.2078 19.367 91.2704 21.1881 89.4911C22.9276 87.7927 24.7571 86.16 26.6639 84.6331C28.3382 83.2924 29.9548 81.8962 31.5053 80.4349C32.3541 79.6348 33.0269 78.5075 33.5193 76.897C32.7847 75.7731 32.1604 74.5498 31.7872 73.1709C31.6832 72.7864 31.6145 72.3961 31.5169 72.016C31.1428 71.4945 30.7262 70.9911 30.3754 70.4467C29.4331 68.9827 28.697 67.2096 28.5928 65.2289C28.4877 63.1533 29.0855 61.2298 30.2445 59.6289C30.6799 59.0273 30.6736 58.924 30.5894 59.1835L30.4869 60.6251C30.8088 59.463 31.2788 58.3153 31.9805 57.2461C33.2191 55.3607 34.7268 53.4952 36.4875 51.6926C38.0994 50.0426 39.7605 48.442 41.4151 46.8347C42.4286 45.8501 43.2487 44.5404 43.8547 42.8181C44.9871 39.5998 46.9083 36.8645 49.6303 34.8485C51.1213 33.7421 52.4325 32.455 53.584 31.0179C55.5227 28.6007 57.9826 26.7397 60.8352 25.4247C62.6922 24.5678 64.3509 23.5615 65.8272 22.4121C67.3426 21.2309 68.7251 19.9053 69.9479 18.4367C71.4145 16.6731 72.9128 14.8997 74.3966 13.1532C76.2037 11.0282 78.3148 9.18938 80.6988 7.68825C82.0891 6.80966 83.3121 5.67923 84.3521 4.22788L86.5918 1.92009C87.5256 1.24661 88.6493 0.713912 89.9812 0.516488ZM40.1788 85.6731C39.6361 86.3867 39.053 87.073 38.3899 87.6997C36.6422 89.3469 34.8058 90.9324 32.9224 92.4407C31.2693 93.7645 29.702 95.1787 28.1978 96.6473C26.7814 98.0302 25.4598 99.5168 24.2749 101.146C22.5062 103.578 20.2827 105.58 17.6639 107.098C15.9041 108.119 14.3063 109.283 12.8362 110.553C12.0648 111.22 12.0297 111.611 12.035 111.906L12.0323 111.945C12.0854 111.996 12.2074 112.118 12.4415 112.248C13.8694 113.04 15.0712 113.341 16.0403 113.405C16.0935 113.407 16.1089 113.399 16.16 113.374C16.2508 113.33 16.5253 113.204 16.9085 112.762C18.232 111.227 19.4687 109.575 20.5891 107.815C22.0632 105.5 23.7742 103.399 25.7723 101.566C27.1918 100.264 28.4971 98.8099 29.6452 97.2202C31.1245 95.1731 32.7373 93.2511 34.4806 91.4551C36.3272 89.5538 38.4232 87.8996 40.744 86.5357C40.5352 86.2358 40.3506 85.9441 40.1788 85.6731ZM91.5371 11.1224C89.9445 13.0917 88.1451 14.8271 86.0085 16.1724C84.4647 17.1453 83.1362 18.3116 82.0018 19.6468C80.5432 21.3637 79.0811 23.0853 77.6393 24.819C75.9573 26.841 74.0803 28.6712 72.0023 30.2921C69.881 31.9455 67.5267 33.3697 65.004 34.5326C63.4788 35.2381 62.3097 36.1574 61.4006 37.2917C59.7043 39.4088 57.7433 41.2879 55.5577 42.9067C54.6013 43.6182 53.8246 44.634 53.2903 46.1524C52.2294 49.1619 50.6155 51.8189 48.3859 53.9882C46.7935 55.535 45.2155 57.1161 43.6643 58.704C42.2621 60.1394 41.1466 61.48 40.3229 62.7348C40.0665 63.1255 39.9102 63.6251 40.0757 64.5578C40.2557 65.5721 40.5031 66.6139 40.7528 67.6997C40.9887 67.9853 41.2314 68.2616 41.4766 68.5345C41.5984 68.4964 41.7143 68.4385 41.8384 68.4036C44.5323 67.6461 47.1498 67.1719 49.5139 67.3049C50.3865 67.3549 51.2305 67.4382 51.9631 67.5575L54.7937 68.503L56.0854 69.6131C56.4171 69.989 56.6288 70.3396 56.7619 70.562C57.0737 71.0829 57.3217 71.5951 57.4804 72.0229C57.8005 72.8893 58.0627 73.9219 58.2883 74.9783C58.8952 77.8215 58.6834 80.6725 57.7646 83.439C57.5494 84.0849 57.2598 84.7048 56.9663 85.3011L56.9274 85.2984C57.259 85.3527 57.5978 85.4529 57.9321 85.4873C59.7033 85.6698 62.0258 85.8464 64.8983 86.1005C66.4385 84.3885 68.0926 82.806 69.8565 81.3623C71.3578 80.1335 72.7213 78.7726 73.9465 77.2673C75.6374 75.1897 77.5662 73.3461 79.706 71.7246C81.2113 70.5841 82.5607 69.278 83.7432 67.8216C85.0057 66.2659 86.147 64.5802 87.1956 62.7805C88.5698 60.4194 90.2189 58.2439 92.081 56.314C93.9695 54.3588 96.0981 52.6583 98.4724 51.2471C100.495 50.0455 102.562 48.8758 104.6 47.6886C106.305 46.6943 107.828 45.5394 109.191 44.2558C110.613 42.9166 111.898 41.4374 113.069 39.8324C113.941 38.638 114.451 37.4036 114.63 36.0665C114.841 34.4522 114.766 32.7813 114.397 31.0765C114.084 29.6281 113.466 28.365 112.518 27.2224C111.073 25.4888 109.61 23.7621 108.144 22.0944C107.432 21.2849 106.858 20.679 106.435 20.2497C106.182 19.9937 106.03 19.8494 105.959 19.785C105.372 19.3798 104.141 18.4992 102.304 17.2144C100.744 16.125 99.1009 15.2432 97.4048 14.5162C95.3638 13.6409 93.4372 12.4573 91.5371 11.1224Z" fill="white"/>
<path d="M109.869 16.1539C118.805 25.0897 123.106 35.2766 119.476 38.9068L67.1181 91.2648L67.1177 91.2643C63.4646 94.8473 53.3059 90.5458 44.3917 81.6316C35.4775 72.7174 31.176 62.5587 34.759 58.9056L34.7585 58.9051L87.1165 6.54712C90.7467 2.91692 100.934 7.21802 109.869 16.1539Z" fill="url(#paint0_linear_170_165)"/>
<ellipse cx="50.9647" cy="75.0585" rx="22.8817" ry="9.2957" transform="rotate(45 50.9647 75.0585)" fill="#EBF0F5"/>
<ellipse cx="50.9647" cy="75.0585" rx="22.8817" ry="9.2957" transform="rotate(45 50.9647 75.0585)" fill="url(#paint1_radial_170_165)"/>
<path d="M52.9872 73.036C55.6399 75.6888 56.6867 78.9429 55.3253 80.3046L15.5713 120.059L5.96458 110.452L45.7186 70.6979C47.0803 69.3365 50.3345 70.3833 52.9872 73.036Z" fill="#D5E4F3"/>
<path d="M52.9872 73.036C55.6399 75.6888 56.6867 78.9429 55.3253 80.3046L15.5713 120.059L5.96458 110.452L45.7186 70.6979C47.0803 69.3365 50.3345 70.3833 52.9872 73.036Z" fill="url(#paint2_linear_170_165)" fill-opacity="0.71"/>
<ellipse cx="10.8808" cy="115.241" rx="6.79301" ry="2.32771" transform="rotate(45 10.8808 115.241)" fill="#8697A7"/>
<path d="M14.6563 119.09C14.0267 119.72 11.8186 118.532 9.72427 116.438C7.62992 114.344 6.44246 112.136 7.07199 111.506C7.70152 110.877 9.90965 112.064 12.004 114.158C14.0983 116.253 15.2858 118.461 14.6563 119.09Z" fill="#1C3F5E"/>
<mask id="mask0_170_165" style="mask-type:alpha" maskUnits="userSpaceOnUse" x="5" y="70" width="51" height="51">
<path d="M52.9872 73.036C55.6399 75.6888 56.6867 78.9429 55.3253 80.3046L15.5713 120.059L5.96458 110.452L45.7186 70.6979C47.0803 69.3365 50.3345 70.3833 52.9872 73.036Z" fill="#D5E4F3"/>
</mask>
<g mask="url(#mask0_170_165)">
<g opacity="0.04">
<path d="M20.2705 115.712C21.1795 114.803 19.7658 111.915 17.113 109.262C14.4602 106.61 11.5727 105.196 10.6637 106.105" stroke="black" stroke-linecap="round" stroke-linejoin="round"/>
<path d="M53.7485 82.0039C54.6576 81.0949 53.2439 78.2074 50.5911 75.5546C47.9383 72.9017 45.0508 71.4881 44.1418 72.3971" stroke="black" stroke-linecap="round" stroke-linejoin="round"/>
<path d="M38.6477 96.9694C39.5567 96.0603 38.1431 93.1729 35.4903 90.52C32.8374 87.8672 29.95 86.4536 29.0409 87.3626" stroke="black" stroke-linecap="round" stroke-linejoin="round"/>
<path d="M46.1981 89.4866C47.1072 88.5776 45.6935 85.6901 43.0407 83.0373C40.3879 80.3845 37.5004 78.9708 36.5914 79.8799" stroke="black" stroke-linecap="round" stroke-linejoin="round"/>
<path d="M23.5469 111.935C24.4559 111.026 23.0423 108.138 20.3894 105.485C17.7366 102.833 14.8491 101.419 13.9401 102.328" stroke="black" stroke-linecap="round" stroke-linejoin="round"/>
<path d="M27.2553 108.125C28.1643 107.216 26.7507 104.329 24.0979 101.676C21.445 99.0229 18.5576 97.6092 17.6486 98.5183" stroke="black" stroke-linecap="round" stroke-linejoin="round"/>
<path d="M31.0973 104.452C32.0063 103.543 30.5927 100.656 27.9399 98.0028C25.287 95.3499 22.3996 93.9363 21.4905 94.8453" stroke="black" stroke-linecap="round" stroke-linejoin="round"/>
<path d="M35.3713 100.746C36.2803 99.8372 34.8667 96.9497 32.2138 94.2969C29.561 91.6441 26.6735 90.2304 25.7645 91.1395" stroke="black" stroke-linecap="round" stroke-linejoin="round"/>
<path d="M42.5642 92.9198C43.4732 92.0107 42.0596 89.1233 39.4068 86.4704C36.7539 83.8176 33.8665 82.404 32.9575 83.313" stroke="black" stroke-linecap="round" stroke-linejoin="round"/>
<path d="M50.4721 85.7808C51.3811 84.8717 49.9675 81.9843 47.3147 79.3314C44.6618 76.6786 41.7744 75.265 40.8653 76.174" stroke="black" stroke-linecap="round" stroke-linejoin="round"/>
</g>
</g>
</g>
<defs>
<linearGradient id="paint0_linear_170_165" x1="60.9507" y1="32.7129" x2="93.3104" y2="65.0725" gradientUnits="userSpaceOnUse">
<stop stop-color="#A8B2A3"/>
<stop offset="0.668269" stop-color="#F1FFEA"/>
<stop offset="0.778846" stop-color="#FFF1F1"/>
<stop offset="0.894231" stop-color="#F0E2E2"/>
<stop offset="1" stop-color="#D0CECE"/>
</linearGradient>
<radialGradient id="paint1_radial_170_165" cx="0" cy="0" r="1" gradientUnits="userSpaceOnUse" gradientTransform="translate(49.1771 73.0921) rotate(72.2724) scale(22.8964 60.8558)">
<stop stop-color="#959EA4"/>
<stop offset="0.592538" stop-color="#2D3339"/>
<stop offset="0.783654" stop-color="#D2E0EB"/>
</radialGradient>
<linearGradient id="paint2_linear_170_165" x1="52.9872" y1="73.036" x2="10.7679" y2="115.255" gradientUnits="userSpaceOnUse">
<stop/>
<stop offset="0.615385" stop-opacity="0"/>
</linearGradient>
<clipPath id="clip0_170_165">
<rect width="128" height="128" fill="white"/>
</clipPath>
<pattern id="pattern0_170_165" patternUnits="userSpaceOnUse" viewBox="113.504 311.101 42.5 85" width="24.238281883299351%" height="48.476563766598701%" x="51.59" y="51.59" patternContentUnits="objectBoundingBox">
<g id="pattern0_170_165_inner">
<circle cx="77.0038" cy="317.101" r="6" fill="#D5F4C4"/>
<circle cx="99.0038" cy="317.101" r="6" fill="#D5F4C4"/>
<circle cx="77.0038" cy="339.101" r="6" fill="#D5F4C4"/>
<circle cx="99.0038" cy="339.101" r="6" fill="#F7D4D4"/>
</g>
<use xlink:href="#pattern0_170_165_inner" transform="translate(42.5 0)"/>
<use xlink:href="#pattern0_170_165_inner" transform="translate(21.25 42.5)"/>
<use xlink:href="#pattern0_170_165_inner" transform="translate(63.75 42.5)"/>
</pattern></defs>
</svg>
