<svg width="128" height="128" viewBox="0 0 128 128" fill="none" xmlns="http://www.w3.org/2000/svg" xmlns:xlink="http://www.w3.org/1999/xlink">
<g clip-path="url(#clip0_171_78)">
<rect width="128" height="128" rx="64" fill="#2E2E2E"/>
<rect width="128" height="128" rx="64" fill="url(#pattern0_171_78)" fill-opacity="0.2"/>
<path d="M63.9153 14.2562C77.2372 14.2557 88.0368 18.6426 88.037 24.0546L88.0398 102.111C87.9878 107.505 77.2083 111.872 63.9188 111.872C50.6293 111.873 39.8503 107.507 39.7978 102.113L39.7943 24.0563C39.7941 18.6443 50.5935 14.2566 63.9153 14.2562Z" fill="#FF7DAF"/>
<path d="M63.9185 99.0582C67.8732 99.0581 71.0793 100.703 71.0796 102.733L71.0817 161.899C71.0854 161.932 71.0889 161.965 71.0889 161.998C71.0881 163.353 67.9482 164.358 63.9939 164.358C60.0502 164.359 56.7853 163.35 56.767 162L56.7598 162L56.7576 102.734C56.7578 100.704 59.9637 99.0584 63.9185 99.0582Z" fill="#FF7DAF"/>
<path d="M37.5187 17.1927C39.2071 14.9241 41.722 14.0684 43.7747 13.7845C45.9339 13.4846 47.8612 12.9838 49.5726 12.2997C52.0687 11.3015 54.6709 10.5537 57.3495 10.0798C59.6642 9.67035 61.1659 9.39252 61.8739 9.2633C63.3534 8.99313 65.6009 9.07628 67.832 9.22018C70.2556 9.37653 72.6935 9.57577 75.1471 9.79907C78.4026 10.0955 81.4616 11.1273 84.2096 12.896C86.7356 14.5244 88.9224 16.5535 90.7295 18.9063C92.7074 21.4847 93.9512 24.4381 94.4557 27.6661C94.8773 30.3675 95.0389 33.0752 94.9579 35.7879C94.8738 38.5873 94.4776 41.3781 93.7507 44.1383C93.1248 46.512 92.5338 48.9037 91.9291 51.2773C91.4328 53.2255 91.1912 55.1612 91.2253 57.0655C91.2615 59.0096 91.5078 60.9753 92.0319 62.9612C92.7308 65.6063 93.23 68.2799 93.507 70.9478C93.7968 73.7486 93.7602 76.55 93.3765 79.3457C93.1049 81.3157 93.0758 83.2997 93.2764 85.2644C93.5575 88.003 93.5472 90.7573 93.2745 93.4962C93.0666 95.5792 93.0185 97.706 93.1725 99.8527C93.4685 103.972 91.9585 107.615 88.8105 110.285C86.4033 112.325 83.6732 113.815 80.6712 114.727C80.595 114.75 80.511 114.746 80.4347 114.768C78.9814 115.653 77.474 116.472 75.8609 117.099C75.6245 118.203 75.5111 119.338 75.2146 120.439C74.6929 122.373 74.4564 124.313 74.4838 126.196C74.5155 128.318 74.709 130.44 75.0519 132.571C75.4935 135.309 75.6341 138.085 75.5147 140.836C75.4328 142.751 75.6342 144.68 76.0661 146.626C76.649 149.255 77.028 151.916 77.2237 154.561C77.4868 158.174 76.4786 161.772 73.4881 164.395C71.3333 166.285 68.7544 167.593 65.9046 168.41C62.0988 169.497 58.1818 168.85 55.1349 165.921C52.3319 163.218 51.2548 159.677 51.5225 155.973C51.721 153.244 52.1737 150.507 52.8915 147.809C53.3388 146.12 53.4166 144.477 53.1578 142.836C52.7354 140.163 52.5311 137.479 52.5623 134.795C52.5929 132.233 52.7397 129.652 53.0228 127.092C53.2714 124.845 53.4357 122.599 53.5022 120.354C53.5386 119.125 53.1998 117.783 52.3663 116.215C50.9809 115.925 49.6037 115.479 48.2977 114.729C47.9336 114.52 47.5914 114.28 47.2354 114.07C46.5677 113.96 45.882 113.895 45.2147 113.751C43.421 113.362 41.5506 112.589 39.9965 111.19C38.3709 109.721 37.3827 107.842 37.0533 105.785C36.9295 105.012 36.8477 104.939 36.9784 105.195L37.9766 106.347C37.3503 105.24 36.8451 104.034 36.5711 102.714C36.089 100.386 35.8223 97.8713 35.7911 95.2151C35.7627 92.7837 35.8079 90.3524 35.8431 87.921C35.8647 86.4315 35.4996 84.8439 34.6676 83.1083C33.1127 79.8653 32.5059 76.3943 33.0321 72.8625C33.3188 70.9263 33.3368 68.9895 33.1239 67.06C32.7672 63.813 33.2136 60.5922 34.3598 57.4856C35.1053 55.4625 35.5915 53.476 35.8352 51.5187C36.0844 49.5087 36.1268 47.49 35.9435 45.4838C35.7222 43.0759 35.5171 40.6372 35.3213 38.2293C35.0844 35.2982 35.2873 32.3539 35.9454 29.4579C36.3269 27.7666 36.3958 26.0124 36.0892 24.1553L36.0385 20.7655C36.2325 19.5674 36.6731 18.3327 37.5187 17.1927ZM63.8723 117.793C63.9996 118.73 64.0766 119.676 64.0494 120.637C63.9745 123.168 63.7875 125.719 63.5079 128.247C63.2624 130.466 63.1483 132.688 63.1218 134.904C63.0968 136.991 63.2198 139.084 63.5508 141.182C64.0458 144.314 63.8802 147.463 63.0597 150.546C62.509 152.619 62.1857 154.678 62.0365 156.721C61.9585 157.793 62.2241 158.111 62.4477 158.326L62.4747 158.357C62.5525 158.356 62.7343 158.356 63.0058 158.278C64.6602 157.804 65.781 157.133 66.5507 156.458C66.5921 156.42 66.5973 156.402 66.617 156.346C66.6515 156.245 66.7627 155.947 66.7184 155.331C66.5607 153.201 66.2512 151.047 65.7748 148.901C65.1481 146.076 64.8572 143.235 64.98 140.379C65.068 138.35 64.9569 136.293 64.6277 134.252C64.2045 131.624 63.974 128.989 63.9347 126.351C63.894 123.557 64.2233 120.762 64.9366 118.015C64.5573 117.947 64.2023 117.867 63.8723 117.793ZM46.5843 23.9387C46.8651 26.5939 46.8174 29.2287 46.2275 31.8242C45.802 33.7001 45.6811 35.5599 45.8308 37.4007C46.0233 39.7678 46.2167 42.1409 46.4343 44.508C46.6878 47.269 46.6528 50.0325 46.3121 52.7897C45.9634 55.6033 45.27 58.4199 44.2564 61.1673C43.6454 62.83 43.4592 64.3867 43.627 65.9099C43.9407 68.7525 43.8797 71.615 43.4572 74.4509C43.2747 75.6941 43.4528 77.0303 44.1865 78.5604C45.639 81.5945 46.4165 84.7781 46.3715 88.0571C46.3376 90.3971 46.3398 92.7519 46.3672 95.0919C46.392 97.2071 46.5598 99.0378 46.8811 100.587C46.9812 101.07 47.2371 101.558 48.0557 102.13C48.946 102.752 49.907 103.344 50.9025 103.968C51.2913 104.005 51.6781 104.03 52.0643 104.05C52.1267 103.931 52.1699 103.802 52.2364 103.683C53.6798 101.11 55.2774 98.8058 57.1388 97.1428C57.8265 96.5296 58.5178 95.9625 59.1528 95.5054L61.9676 94.1002L63.7579 93.9648C64.2854 93.9977 64.7045 94.1013 64.9695 94.1678C65.5902 94.3237 66.1569 94.5206 66.594 94.7213C67.4785 95.1284 68.4436 95.7028 69.3992 96.3221C71.971 97.989 73.9384 100.272 75.3156 103.019C75.6367 103.661 75.8829 104.339 76.1087 105.002L76.0775 105.029C76.3653 104.823 76.6925 104.645 76.9674 104.421C78.4236 103.237 80.2865 101.637 82.6172 99.6855C82.489 97.2613 82.5424 94.8487 82.7812 92.4577C82.9842 90.4226 82.9862 88.3917 82.7774 86.3564C82.4891 83.5474 82.5527 80.7354 82.939 77.9316C83.2109 75.9594 83.2432 73.9799 83.0391 72.0129C82.8205 69.9122 82.4147 67.8049 81.8548 65.6816C81.1191 62.8973 80.7268 60.0464 80.6762 57.2198C80.6265 54.3546 80.9456 51.5003 81.6635 48.6786C82.2758 46.2748 82.9446 43.8623 83.5784 41.4586C84.1083 39.4464 84.3826 37.4503 84.4419 35.4775C84.5036 33.4192 84.3588 31.3587 84.0356 29.2892C83.7949 27.7491 83.2553 26.4485 82.3915 25.3189C81.3461 23.9578 80.044 22.7687 78.4987 21.7725C77.1852 20.9267 75.7834 20.4455 74.2247 20.3007C71.8559 20.085 69.4776 19.889 67.142 19.7384C66.0082 19.6654 65.1283 19.6419 64.4928 19.6374C64.1137 19.6349 63.8929 19.6406 63.7916 19.6459C63.0526 19.7809 61.4781 20.0425 59.151 20.4542C57.1762 20.8049 55.2942 21.3723 53.4879 22.0946C51.3141 22.9636 48.9957 23.5174 46.5843 23.9387Z" fill="white"/>
<path d="M64 14.0241C77.3219 14.0241 88.1214 18.4114 88.1214 23.8234V101.88H88.1206C88.0684 107.274 77.2895 111.64 64 111.64C50.7105 111.64 39.9316 107.274 39.8794 101.88H39.8786V23.8234C39.8786 18.4114 50.6781 14.0241 64 14.0241Z" fill="url(#paint0_linear_171_78)"/>
<ellipse cx="64" cy="101.841" rx="24.1214" ry="9.7993" fill="#EBF0F5"/>
<ellipse cx="64" cy="101.841" rx="24.1214" ry="9.7993" fill="url(#paint1_radial_171_78)"/>
<path d="M64.0001 98.8257C67.955 98.8258 71.1613 100.472 71.1613 102.502V161.767H56.839V102.502C56.839 100.472 60.0452 98.8257 64.0001 98.8257Z" fill="#D5E4F3"/>
<path d="M64.0001 98.8257C67.955 98.8258 71.1613 100.472 71.1613 102.502V161.767H56.839V102.502C56.839 100.472 60.0452 98.8257 64.0001 98.8257Z" fill="url(#paint2_linear_171_78)" fill-opacity="0.71"/>
<mask id="mask0_171_78" style="mask-type:alpha" maskUnits="userSpaceOnUse" x="56" y="98" width="16" height="64">
<path d="M64.0001 98.8257C67.955 98.8258 71.1613 100.472 71.1613 102.502V161.767H56.839L56.839 102.502C56.839 100.472 60.0452 98.8257 64.0001 98.8257Z" fill="#D5E4F3"/>
</mask>
<g mask="url(#mask0_171_78)">
<g opacity="0.04">
<path d="M71.2523 104.943C71.2523 103.588 68.0462 102.489 64.0913 102.489C60.1364 102.489 56.9303 103.588 56.9303 104.943" stroke="black" stroke-width="1.05418" stroke-linecap="round" stroke-linejoin="round"/>
<path d="M71.1514 127.355C71.1514 126 67.9453 124.901 63.9904 124.901C60.0355 124.901 56.8294 126 56.8294 127.355" stroke="black" stroke-width="1.05418" stroke-linecap="round" stroke-linejoin="round"/>
<path d="M71.2019 116.149C71.2019 114.794 67.9958 113.695 64.0409 113.695C60.0859 113.695 56.8798 114.794 56.8798 116.149" stroke="black" stroke-width="1.05418" stroke-linecap="round" stroke-linejoin="round"/>
<path d="M71.0522 121.417C71.0522 120.062 67.8461 118.963 63.8911 118.963C59.9362 118.963 56.7301 120.062 56.7301 121.417" stroke="black" stroke-width="1.05418" stroke-linecap="round" stroke-linejoin="round"/>
<path d="M71.6253 110.201C71.6253 108.845 68.4192 107.747 64.4643 107.747C60.5094 107.747 57.3033 108.845 57.3033 110.201" stroke="black" stroke-width="1.05418" stroke-linecap="round" stroke-linejoin="round"/>
</g>
</g>
</g>
<defs>
<linearGradient id="paint0_linear_171_78" x1="39.8786" y1="62.8321" x2="88.1213" y2="62.8321" gradientUnits="userSpaceOnUse">
<stop stop-color="#A8B2A3"/>
<stop offset="0.668269" stop-color="#F1FFEA"/>
<stop offset="0.778846" stop-color="#FFF1F1"/>
<stop offset="0.894231" stop-color="#F0E2E2"/>
<stop offset="1" stop-color="#D0CECE"/>
</linearGradient>
<radialGradient id="paint1_radial_171_78" cx="0" cy="0" r="1" gradientUnits="userSpaceOnUse" gradientTransform="translate(62.1155 99.768) rotate(72.2724) scale(24.1368 64.1527)">
<stop stop-color="#959EA4"/>
<stop offset="0.592538" stop-color="#2D3339"/>
<stop offset="0.783654" stop-color="#D2E0EB"/>
</radialGradient>
<linearGradient id="paint2_linear_171_78" x1="64.0001" y1="98.8257" x2="64.0001" y2="161.767" gradientUnits="userSpaceOnUse">
<stop/>
<stop offset="0.615385" stop-opacity="0"/>
</linearGradient>
<clipPath id="clip0_171_78">
<rect width="128" height="128" rx="64" fill="white"/>
</clipPath>
<pattern id="pattern0_171_78" patternUnits="userSpaceOnUse" viewBox="-93.4962 311.101 42.5 85" width="24.238281883299351%" height="48.476563766598701%" x="51.59" y="51.59" patternContentUnits="objectBoundingBox">
<g id="pattern0_171_78_inner">
<circle cx="-129.996" cy="317.101" r="6" fill="#D5F4C4"/>
<circle cx="-107.996" cy="317.101" r="6" fill="#D5F4C4"/>
<circle cx="-129.996" cy="339.101" r="6" fill="#D5F4C4"/>
<circle cx="-107.996" cy="339.101" r="6" fill="#F7D4D4"/>
</g>
<use xlink:href="#pattern0_171_78_inner" transform="translate(42.5 0)"/>
<use xlink:href="#pattern0_171_78_inner" transform="translate(21.25 42.5)"/>
<use xlink:href="#pattern0_171_78_inner" transform="translate(63.75 42.5)"/>
</pattern></defs>
</svg>
